<svg version="1.1" width="375.7" height="302.2" viewBox="0 0 375.7 302.2" xmlns="http://www.w3.org/2000/svg" xmlns:xlink="http://www.w3.org/1999/xlink" overflow="hidden"><defs></defs><g><g><g id="XMLID_324_"><path d=" M 32.5 38.1 C 32.9 38.8 33.4 39.5 33.8 40.2 C 34.9 42.1 36 44.1 37.2 46 C 38.5 48.3 39.8 50.5 41.1 52.8 C 41.2 53 41.3 53.1 41.4 53.3 C 41.6 53.7 41.4 54 41 54 C 40.4 54 39.7 54 39.1 54 C 38.9 54 38.7 53.9 38.6 53.7 C 37.8 52.4 37.1 51 36.3 49.7 C 35.4 48.1 34.4 46.4 33.5 44.8 C 32.7 43.4 31.8 41.9 31 40.5 C 30.9 40.3 30.9 40.2 31 40 C 31.3 39.5 31.6 38.9 31.9 38.4 C 32 38.3 32.1 38.2 32.2 38.1 C 32.3 38.1 32.4 38.1 32.5 38.1 Z" id="XMLID_332_" fill="#EEEEED"/><path d=" M 23.2 53.4 C 23.4 53 23.7 52.7 23.9 52.3 C 24.2 51.7 24.6 51.2 24.9 50.6 C 25.1 50.2 25.6 50.2 25.8 50.6 C 26.3 51.5 26.8 52.4 27.4 53.3 C 27.6 53.7 27.4 54 27 54 C 25.9 54 24.9 54 23.8 54 C 23.6 54 23.5 53.8 23.3 53.8 C 23.2 53.7 23.2 53.5 23.2 53.4 Z" id="XMLID_331_" fill="#EEEEED"/><path d=" M 50 54 C 48.6 54 47.1 54 45.7 54 C 45.2 54 44.8 53.7 44.7 53.2 C 44.6 52.7 44.8 52.3 45.2 52.1 C 45.4 52 45.7 52 46 52 C 47.9 52 49.9 52 51.8 52 C 52.6 52 53.4 52 54.2 52 C 54.7 52 55 51.8 55.2 51.4 C 55.4 51 55.3 50.6 55.1 50.2 C 54.9 49.9 54.5 49.8 54.1 49.8 C 51.8 49.8 49.5 49.8 47.2 49.8 C 46.2 49.8 45.4 49.4 44.7 48.7 C 43.3 47 44 44.4 46.1 43.7 C 46.4 43.6 46.8 43.5 47.1 43.5 C 49.9 43.5 52.8 43.5 55.6 43.5 C 56.6 43.5 57 44.4 56.6 45.1 C 56.4 45.5 56 45.6 55.6 45.6 C 53.1 45.6 50.5 45.6 48 45.6 C 47.7 45.6 47.4 45.6 47.1 45.6 C 46.6 45.6 46 46.1 46 46.7 C 46 47.3 46.5 47.8 47.1 47.8 C 49.4 47.8 51.7 47.8 54 47.8 C 55.4 47.8 56.4 48.5 57 49.8 C 57.7 51.4 56.8 53.5 55.1 54 C 54.7 54.1 54.3 54.2 54 54.2 C 53.3 54.2 52.6 54.2 51.9 54.2 C 51.4 54 50.7 54 50 54 L 50 54 Z" id="XMLID_330_" fill="#EEEEED"/><path d=" M 76.3 49.2 C 76.3 48 76.3 46.8 76.3 45.6 C 76.3 44.6 77 43.7 77.9 43.5 C 79 43.2 79.9 43.4 80.7 44.3 C 82.8 46.8 84.9 49.3 87.1 51.8 C 87.2 51.9 87.3 52 87.4 52 C 87.7 52.1 87.9 51.9 87.9 51.6 C 87.9 49.3 87.9 46.9 87.9 44.6 C 87.9 44.2 88 43.8 88.4 43.6 C 89.1 43.2 90 43.7 90 44.5 C 90 45.8 90 47.1 90 48.5 C 90 49.6 90 50.7 90 51.7 C 90 53.2 88.5 54.4 87.1 54 C 86.5 53.9 86.1 53.6 85.7 53.1 C 83.5 50.5 81.4 48 79.2 45.4 C 79.1 45.2 78.9 45.2 78.7 45.3 C 78.5 45.4 78.5 45.5 78.5 45.7 C 78.5 48.1 78.5 50.4 78.5 52.8 C 78.5 53.4 78.3 53.7 77.8 53.9 C 77.1 54.1 76.4 53.6 76.4 52.9 C 76.4 52.3 76.4 51.7 76.4 51 C 76.3 50.4 76.3 49.8 76.3 49.2 C 76.3 49.2 76.3 49.2 76.3 49.2 Z" id="XMLID_329_" fill="#EEEEED"/><path d=" M 66.7 51.9 C 67.9 51.9 69.2 51.9 70.4 51.9 C 70.8 51.9 71.2 52 71.4 52.3 C 71.6 52.6 71.7 53 71.5 53.3 C 71.3 53.7 71 53.9 70.6 53.9 C 69.2 53.9 67.8 53.9 66.5 53.9 C 65.4 53.9 64.3 53.9 63.2 53.9 C 61.2 53.9 59.5 52.7 58.9 50.8 C 58.8 50.4 58.7 50 58.7 49.5 C 58.7 47.8 58.7 46 58.7 44.3 C 58.7 43.8 59 43.4 59.5 43.3 C 60 43.2 60.5 43.4 60.7 43.9 C 60.8 44.1 60.8 44.3 60.8 44.4 C 60.8 46 60.8 47.7 60.8 49.3 C 60.8 50.3 61.2 51 62.1 51.5 C 62.5 51.7 62.9 51.8 63.3 51.8 C 64.4 51.9 65.5 51.9 66.7 51.9 L 66.7 51.9 Z" id="XMLID_328_" fill="#EEEEED"/><path d=" M 35.3 54.1 C 35 54.1 34.7 54.1 34.4 54.1 C 34.2 54.1 34 54 33.9 53.8 C 32.2 50.8 30.4 47.7 28.7 44.7 C 28.6 44.5 28.6 44.2 28.7 44 C 29 43.5 29.3 43 29.6 42.5 C 29.8 42.1 30.2 42.1 30.5 42.5 C 31.3 43.9 32.2 45.4 33 46.8 C 34.2 48.9 35.4 51.1 36.7 53.2 C 37 53.7 36.7 54.1 36.2 54 C 35.9 54 35.6 54.1 35.3 54.1 L 35.3 54.1 Z" id="XMLID_327_" fill="#EEEEED"/><path d=" M 75 48.7 C 75 50.1 75 51.5 75 52.9 C 75 53.4 74.8 53.8 74.3 53.9 C 73.7 54.1 73 53.7 73 53 C 73 52.9 73 52.8 73 52.7 C 73 50 73 47.3 73 44.6 C 73 44.2 73.2 43.8 73.6 43.6 C 74.3 43.2 75.1 43.7 75.1 44.5 C 75 45.9 75 47.3 75 48.7 L 75 48.7 Z" id="XMLID_326_" fill="#EEEEED"/><path d=" M 30.6 54.1 C 30.3 54.1 30 54.1 29.7 54.1 C 29.5 54.1 29.3 54 29.2 53.8 C 28.3 52.3 27.5 50.7 26.6 49.2 C 26.1 48.3 26.1 48.6 26.6 47.7 C 26.8 47.3 27 47 27.2 46.6 C 27.5 46.2 27.8 46.2 28.1 46.6 C 29 48.1 29.8 49.6 30.7 51.2 C 31.1 51.9 31.6 52.7 32 53.4 C 32.2 53.8 32 54.1 31.6 54.1 C 31.3 54.1 30.9 54.1 30.6 54.1 L 30.6 54.1 Z" id="XMLID_325_" fill="#EEEEED"/></g><g id="XMLID_320_" opacity="0.2"><g id="XMLID_321_"><path d=" M 110.9 48 L 110.8 48.1 L 110.7 48.2 L 83.3 96.4 L 28.1 96.4 L 0 48.2 C 9.4 32.2 18.7 16.1 28.1 0 L 83.3 0 L 110.6 48 L 110.9 48 Z" id="XMLID_322_" fill="#FFFFFF"/></g></g><g id="XMLID_313_" opacity="0.2"><g><g id="XMLID_315_"><g id="XMLID_316_"><path d=" M 110.9 150.2 L 110.8 150.3 L 110.7 150.4 L 83.3 198.6 L 28.1 198.6 L 0 150.5 C 9.4 134.4 18.7 118.3 28.1 102.3 L 83.3 102.3 L 110.6 150.3 L 110.9 150.3 Z" fill="#FFFFFF"/></g></g></g></g><g id="XMLID_309_" opacity="0.2"><g id="XMLID_310_"><path d=" M 110.9 253.8 L 110.8 253.9 L 110.7 254 L 83.3 302.2 L 28.1 302.2 L 0 254 C 9.4 237.9 18.7 221.8 28.1 205.8 L 83.3 205.8 L 110.6 253.8 L 110.9 253.8 Z" id="XMLID_311_" fill="#FFFFFF"/></g></g><g id="XMLID_305_"><g id="XMLID_306_"><path d=" M 194.1 99.5 L 194 99.6 L 193.9 99.7 L 169.1 143.3 L 119.2 143.3 L 93.9 99.7 C 102.4 85.2 110.8 70.6 119.3 56.1 L 169.2 56.1 L 193.9 99.5 L 194.1 99.5 Z" id="XMLID_307_" fill="#7BB9D3"/></g></g><g id="XMLID_301_" opacity="0.2"><g id="XMLID_302_"><path d=" M 287.8 150.2 L 287.7 150.3 L 287.6 150.4 L 260.2 198.6 L 205 198.6 L 176.9 150.4 C 186.3 134.3 195.6 118.2 205 102.2 L 260.2 102.2 L 287.5 150.2 L 287.8 150.2 Z" id="XMLID_303_" fill="#FFFFFF"/></g></g><g id="XMLID_295_" opacity="0.2"><g id="XMLID_296_"><path d=" M 287.8 48 L 287.7 48.1 L 287.6 48.2 L 260.2 96.4 L 205 96.4 L 176.9 48.2 C 186.3 32.2 195.6 16.1 205 0 L 260.2 0 L 287.5 48 L 287.8 48 Z" id="XMLID_299_" fill="#FFFFFF"/></g></g><g id="XMLID_283_" opacity="0.2"><g><g id="XMLID_287_"><g id="XMLID_288_"><path d=" M 287.8 253.8 L 287.7 253.9 L 287.6 254 L 260.2 302.2 L 205 302.2 L 176.9 254 C 186.3 237.9 195.6 221.8 205 205.8 L 260.2 205.8 L 287.5 253.8 L 287.8 253.8 Z" fill="#FFFFFF"/></g></g></g></g><g id="XMLID_279_" opacity="0.2"><g id="XMLID_280_"><path d=" M 199.4 202.2 L 199.3 202.3 L 199.2 202.4 L 171.8 250.6 L 116.6 250.6 L 88.5 202.4 C 97.9 186.3 107.2 170.2 116.6 154.2 L 171.8 154.2 L 199.1 202.2 L 199.4 202.2 Z" id="XMLID_281_" fill="#FFFFFF"/></g></g><g id="XMLID_275_" opacity="0.2"><g id="XMLID_276_"><path d=" M 375.7 202.2 L 375.6 202.3 L 375.5 202.4 L 348.1 250.6 L 293 250.6 L 264.9 202.4 C 274.3 186.3 283.6 170.2 293 154.2 L 348.2 154.2 L 375.5 202.2 L 375.7 202.2 Z" id="XMLID_277_" fill="#FFFFFF"/></g></g><g id="XMLID_259_"><path d=" M 129.6 193.8 C 130.1 193.8 130.5 193.9 130.8 193.9 C 131.1 193.9 131.4 193.7 131.5 193.5 C 132.3 192.4 133 191.3 133.7 190.2 C 134.9 188.5 136.1 188.4 137.3 190.1 C 140.1 194.1 143 198.1 145.8 202 C 148.5 205.9 151.2 209.8 154 213.7 C 154.3 214.1 154.6 214.3 155.1 214.3 C 157.8 214.3 160.5 214.3 163.2 214.3 C 164.5 214.3 165.8 214.2 167.3 214.2 C 166.6 213.1 165.9 212.1 165.2 211.2 C 161.9 206.4 158.6 201.6 155.3 196.8 C 151.4 191.1 147.4 185.4 143.5 179.7 C 142.3 178 140.6 178 139.4 179.7 C 136.6 183.7 133.9 187.8 131.1 191.8 C 130.6 192.4 130.1 193.1 129.6 193.8 Z M 146.8 207 C 146.8 205.5 146.4 204.2 145.5 202.9 C 142.6 198.7 136.2 198.3 132.7 202.1 C 130.1 204.9 130.1 209.2 132.8 212 C 135.5 214.8 140 215.3 143.3 213.2 C 145.5 211.7 146.7 209.7 146.8 207 Z M 162.7 219.6 C 162.7 218.9 162.7 218.3 162.7 217.7 C 162.7 217.5 162.9 217.4 163 217.3 C 163.1 217.5 163.2 217.6 163.2 217.8 C 163.2 218.4 163.2 219 163.2 219.7 C 163.6 219.7 164 219.6 164.3 219.6 C 164.5 218.8 164.1 218 164.7 217.2 C 165.3 218 164.8 218.8 165.1 219.6 C 165.4 219.6 165.8 219.6 166.2 219.6 C 166.2 218.9 166.3 218.3 166.2 217.6 C 166.1 216.5 165.6 216.1 164.7 216.2 C 164.4 216.2 164.1 216.4 163.8 216.5 C 162.7 215.8 161.7 216.4 161.6 217.2 C 161.5 218 161.6 218.8 161.6 219.7 C 162 219.6 162.3 219.6 162.7 219.6 Z M 126.2 219.9 C 126.2 219.7 126.2 219.5 126.2 219.3 C 126.2 218.5 126.2 217.6 126.2 216.8 C 126.2 216.6 126.3 216.5 126.4 216.4 C 126.5 216.3 126.8 216.4 126.8 216.5 C 126.8 216.8 127.2 217 126.7 217.4 C 126.5 217.5 126.5 218.4 126.7 218.4 C 127 218.6 127 218.8 127 219 C 127 219.3 127 219.6 127 219.9 C 127.5 219.9 127.8 219.9 128.2 219.9 C 128.2 218.7 128.2 217.6 128.2 216.4 C 128.2 215.6 127.4 215 126.7 215 C 125.9 215 125.2 215.5 125.1 216.3 C 125 217.5 125.1 218.7 125.1 219.9 C 125.4 219.9 125.8 219.9 126.2 219.9 Z M 134.2 217.6 C 134.2 217.2 134.2 216.8 134.1 216.5 C 133 216.4 132.5 216.8 132.3 217.9 C 132.1 218.7 132.7 219.8 133.5 220 C 134.4 220.2 135.3 219.7 135.4 218.7 C 135.5 217.5 135.5 216.3 135.6 215.1 C 135.1 215.1 134.8 215.1 134.4 215.1 C 134.4 215.4 134.4 215.6 134.4 215.8 C 134.4 216.6 134.4 217.5 134.4 218.3 C 134.4 218.5 134.1 218.7 133.9 218.8 C 133.8 218.8 133.5 218.6 133.5 218.4 C 133.5 218.2 133.7 218 133.8 217.8 C 133.8 217.6 134 217.6 134.2 217.6 Z M 148.8 214.8 C 148.4 214.8 148 214.9 147.6 214.9 C 147 214.9 146.5 215 146.3 215.6 C 146.1 216.2 146.2 216.7 146.7 217.2 C 146.9 217.4 147.1 217.6 147.3 217.8 C 147.4 217.9 147.5 218.1 147.5 218.3 C 147.3 218.4 147.2 218.4 147 218.5 C 146.8 218.5 146.5 218.5 146.3 218.5 C 146.3 219 146.3 219.4 146.3 219.9 C 146.9 219.8 147.5 219.8 148 219.7 C 148.7 219.6 149 219.1 149 218.5 C 149 217.9 148.6 217.5 148.2 217.1 C 148 216.9 147.8 216.7 147.6 216.5 C 147.6 216.4 147.7 216.4 147.7 216.3 C 148.1 216.3 148.4 216.3 148.8 216.3 C 148.8 215.7 148.8 215.3 148.8 214.8 Z M 149.5 216.3 C 149.5 217.1 149.5 217.8 149.5 218.6 C 149.5 218.9 149.7 219.3 149.9 219.4 C 150.3 219.7 150.3 220.1 150.3 220.5 C 150.3 220.7 150.3 220.9 150.3 221.1 C 150.7 221.1 151 221.1 151.5 221.1 C 151.4 220.3 151.4 219.7 152.1 219.2 C 152.2 219.1 152.3 219 152.3 218.8 C 152.3 218 152.3 217.1 152.3 216.3 C 151.9 216.3 151.5 216.3 151.2 216.3 C 151.2 216.7 151.2 217.1 151.2 217.5 C 151.2 217.9 151 218.3 151 218.6 C 150.5 218.3 150.8 217.9 150.7 217.5 C 150.6 217.1 150.7 216.7 150.7 216.3 C 150.2 216.3 149.9 216.3 149.5 216.3 Z M 131.6 219.8 C 131.6 219.1 131.6 218.3 131.6 217.6 C 131.5 216.8 131 216.4 130.2 216.4 C 129.4 216.4 128.8 216.8 128.8 217.4 C 128.7 218.2 128.8 219 128.8 219.9 C 129.2 219.9 129.6 219.9 130 219.9 C 130 219.3 130 218.8 130 218.2 C 130 218 130.2 217.8 130.2 217.6 C 130.3 217.8 130.4 218 130.4 218.3 C 130.4 218.8 130.4 219.4 130.4 220 C 130.8 219.8 131.2 219.8 131.6 219.8 Z M 161.1 217.4 C 160.7 216.4 160.1 216 159.3 216.2 C 158.7 216.3 158.1 216.9 158 217.8 C 157.9 218.5 158.3 219.3 158.9 219.6 C 159.6 219.9 160.5 219.7 161.1 219 C 160.9 218.8 160.7 218.6 160.5 218.3 C 160.1 218.6 159.6 219 159.2 218.5 C 159 218.3 159.1 217.8 159.2 217.5 C 159.2 217.4 159.6 217.4 159.8 217.3 C 159.8 217.4 159.8 217.4 159.8 217.5 C 159.6 217.6 159.5 217.8 159.3 217.9 C 159.4 218.1 159.5 218.3 159.6 218.5 C 160.1 218 160.6 217.7 161.1 217.4 Z M 139.2 217.5 C 138.7 216.5 138.2 216.1 137.3 216.3 C 136.7 216.4 136.1 217.1 136 217.9 C 135.9 218.6 136.3 219.4 136.9 219.7 C 137.6 220 138.5 219.8 139.1 219.1 C 138.9 218.9 138.7 218.6 138.5 218.4 C 138.1 218.7 137.7 219.1 137.3 218.6 C 137 218.3 136.9 217.9 137.2 217.5 C 137.3 217.4 137.6 217.3 137.8 217.3 C 137.8 217.4 137.8 217.4 137.9 217.5 C 137.7 217.6 137.6 217.8 137.4 217.9 C 137.5 218.1 137.6 218.3 137.7 218.5 C 138.2 218.1 138.7 217.8 139.2 217.5 Z M 154.9 216.1 C 154.2 216.2 153.5 215.9 153 216.5 C 152.3 217.4 153.3 217.8 153.9 218.4 C 153.5 218.4 153.2 218.5 152.9 218.5 C 152.9 218.9 152.9 219.2 152.9 219.6 C 153.4 219.6 153.8 219.6 154.2 219.6 C 154.6 219.6 155 219.4 155.1 219 C 155.2 218.5 155.1 218.1 154.7 217.8 C 154.5 217.7 154.4 217.6 154.1 217.3 C 154.5 217.2 154.8 217.2 155 217.2 C 154.9 216.8 154.9 216.5 154.9 216.1 Z M 167.8 218.5 C 167.3 218.5 167 218.6 166.7 218.6 C 166.7 219 166.7 219.3 166.7 219.7 C 167.2 219.7 167.6 219.7 168 219.7 C 168.4 219.7 168.8 219.5 168.9 219 C 169 218.5 168.9 218.1 168.5 217.8 C 168.3 217.7 168.2 217.6 167.9 217.3 C 168.3 217.2 168.5 217.2 168.8 217.2 C 168.8 216.9 168.8 216.6 168.8 216.2 C 168.1 216.3 167.3 216 166.9 216.6 C 166.2 217.5 167.2 217.9 167.8 218.5 Z M 141.8 216.3 C 141.1 216.3 140.4 216.1 139.9 216.7 C 139.2 217.6 140.2 218 140.7 218.7 C 140.3 218.7 140 218.7 139.7 218.8 C 139.7 219.2 139.7 219.5 139.7 219.9 C 140.1 219.9 140.6 219.9 141 219.9 C 141.4 219.8 141.8 219.7 141.9 219.2 C 142 218.7 141.9 218.3 141.4 218 C 141.2 217.9 141.1 217.8 140.9 217.5 C 141.3 217.4 141.5 217.4 141.8 217.4 C 141.8 216.9 141.8 216.6 141.8 216.3 Z M 157.2 216.2 C 157 216.2 156.8 216.1 156.6 216.1 C 156.6 215.7 156.6 215.4 156.5 215.1 C 156.1 215.1 155.8 215.1 155.5 215.1 C 155.5 216.2 155.5 217.3 155.5 218.3 C 155.5 219.4 156.2 219.8 157.4 219.5 C 157.3 219.2 157.3 218.7 157.1 218.6 C 156.4 218.3 156.6 217.8 156.6 217.3 C 156.8 217.3 157 217.2 157.2 217.2 C 157.2 216.9 157.2 216.6 157.2 216.2 Z" id="XMLID_260_" fill="#EEEEED"/></g><g id="XMLID_179_"><g id="XMLID_185_"><path d=" M 37.2 260.5 C 37.2 260.6 37.1 260.7 37 260.8 C 36.9 260.9 36.7 260.9 36.6 260.9 C 36.3 260.9 36 260.8 35.9 260.5 C 35.7 260.1 35.7 259.7 35.9 259.3 C 36 259 36.2 258.9 36.5 258.9 C 36.7 258.9 36.8 258.9 37 259 C 37.1 259.1 37.1 259.2 37.2 259.2 C 37.3 259.5 37.3 259.7 37.3 259.8 C 37.4 260.1 37.4 260.3 37.2 260.5 Z M 36.1 259.9 C 36.1 260 36.1 260.1 36.2 260.3 C 36.2 260.4 36.3 260.5 36.4 260.5 C 36.5 260.6 36.7 260.5 36.7 260.5 C 36.8 260.4 36.9 260.3 37 260.2 C 37.2 259.9 37 259.5 37 259.4 C 36.9 259.3 36.9 259.2 36.8 259.2 C 36.7 259.2 36.7 259.1 36.6 259.1 C 36.5 259.1 36.4 259.1 36.3 259.2 C 36.2 259.2 36.2 259.3 36.2 259.4 C 36.1 259.7 36.1 259.8 36.1 259.9 Z" id="XMLID_256_" fill="#EEEEED"/><path d=" M 44.5 260.5 C 44.5 260.6 44.4 260.7 44.3 260.8 C 44.2 260.9 44 260.9 43.9 260.9 C 43.6 260.9 43.3 260.8 43.2 260.5 C 43 260.1 43 259.7 43.2 259.3 C 43.3 259 43.5 258.9 43.8 258.9 C 44 258.9 44.1 258.9 44.3 259 C 44.4 259.1 44.4 259.2 44.5 259.2 C 44.6 259.5 44.6 259.7 44.6 259.8 C 44.7 260.1 44.6 260.3 44.5 260.5 Z M 43.4 259.9 C 43.4 260 43.4 260.1 43.5 260.3 C 43.5 260.4 43.6 260.5 43.7 260.5 C 43.8 260.6 44 260.5 44 260.5 C 44.1 260.4 44.2 260.3 44.3 260.2 C 44.5 259.9 44.3 259.5 44.3 259.4 C 44.2 259.3 44.2 259.2 44.1 259.2 C 44 259.2 44 259.1 43.9 259.1 C 43.8 259.1 43.7 259.1 43.6 259.2 C 43.5 259.2 43.5 259.3 43.5 259.4 C 43.4 259.7 43.4 259.8 43.4 259.9 Z" id="XMLID_253_" fill="#EEEEED"/><path d=" M 87.6 260.5 C 87.6 260.6 87.5 260.7 87.4 260.8 C 87.3 260.9 87.1 260.9 87 260.9 C 86.7 260.9 86.4 260.8 86.3 260.5 C 86.1 260.1 86.1 259.7 86.3 259.3 C 86.4 259 86.6 258.9 86.9 258.9 C 87.1 258.9 87.2 258.9 87.4 259 C 87.5 259.1 87.5 259.2 87.6 259.2 C 87.7 259.5 87.7 259.7 87.7 259.8 C 87.7 260.1 87.7 260.3 87.6 260.5 Z M 86.5 259.9 C 86.5 260 86.5 260.1 86.6 260.3 C 86.6 260.4 86.7 260.5 86.8 260.5 C 86.9 260.6 87.1 260.5 87.1 260.5 C 87.2 260.4 87.3 260.3 87.4 260.2 C 87.6 259.9 87.4 259.5 87.4 259.4 C 87.3 259.3 87.3 259.2 87.2 259.2 C 87.1 259.2 87.1 259.1 87 259.1 C 86.9 259.1 86.8 259.1 86.7 259.2 C 86.6 259.2 86.6 259.3 86.6 259.4 C 86.5 259.7 86.5 259.8 86.5 259.9 Z" id="XMLID_250_" fill="#EEEEED"/><path d=" M 52.4 249.8 C 52.4 248.2 52.4 246.7 52.4 245.1 C 52.5 245.1 52.5 245.1 52.6 245.1 C 53.3 245.1 53.9 245.1 54.6 245.1 C 54.7 245.1 54.8 245.1 54.8 245.3 C 54.8 248.8 54.8 252.3 54.8 255.8 C 54.8 255.8 54.8 255.9 54.8 255.9 C 54.7 255.9 54.7 255.9 54.6 255.9 C 53.9 255.9 53.2 255.9 52.5 255.9 C 52.4 255.9 52.3 255.9 52.3 255.7 C 51.9 254.2 51.5 252.7 51 251.2 C 51 251.2 51 251.1 50.9 251.1 C 50.9 252.7 50.9 254.2 50.9 255.8 C 50.1 255.8 49.4 255.8 48.6 255.8 C 48.6 255.7 48.6 255.7 48.6 255.6 C 48.6 252.1 48.6 248.6 48.6 245.2 C 48.6 245.1 48.6 245 48.8 245 C 49.4 245 50.1 245 50.7 245 C 50.8 245 50.9 245 50.9 245.2 C 51.4 246.8 51.9 248.2 52.4 249.8 C 52.4 249.8 52.4 249.8 52.4 249.8 C 52.4 249.8 52.4 249.8 52.4 249.8 Z" id="XMLID_248_" fill="#EEEEED"/><path d=" M 47.3 250.5 C 47.3 251.4 47.3 252.2 47.3 253.1 C 47.3 253.5 47.3 254 47.1 254.4 C 46.8 255.1 46.4 255.6 45.7 255.9 C 44.6 256.3 43.6 256.3 42.5 255.8 C 41.7 255.4 41.2 254.7 41.1 253.8 C 41 253.3 41 252.7 41 252.2 C 41 251.1 41 250 41 248.9 C 41 248.3 41 247.8 41.1 247.2 C 41.3 246.1 42 245.3 43.1 245.1 C 44 244.9 45 244.9 45.8 245.4 C 46.1 245.5 46.5 245.8 46.8 246.3 C 47.1 246.7 47.1 247.2 47.1 247.4 C 47.3 248.3 47.3 249.4 47.3 250.5 Z M 44.6 250.3 C 44.6 250.3 44.6 250.3 44.6 250.3 C 44.6 249.4 44.6 248.5 44.6 247.7 C 44.6 247.5 44.6 247.3 44.6 247.1 C 44.6 246.8 44.3 246.7 44.1 246.8 C 44 246.9 43.9 247 43.9 247.1 C 43.9 247.4 43.8 247.7 43.8 248 C 43.8 249.8 43.8 251.6 43.8 253.3 C 43.8 253.5 43.8 253.7 43.8 253.9 C 43.8 254.1 44 254.2 44.2 254.2 C 44.4 254.2 44.5 254.1 44.5 253.8 C 44.5 253.4 44.5 253 44.6 252.6 C 44.6 251.9 44.6 251.1 44.6 250.3 Z" id="XMLID_245_" fill="#EEEEED"/><path d=" M 62.3 255.9 C 61.4 255.9 60.5 255.9 59.5 255.9 C 59.5 255.3 59.4 254.6 59.4 254 C 59.1 254 58.8 254 58.5 254 C 58.4 254.6 58.4 255.3 58.3 255.9 C 57.4 255.9 56.4 255.9 55.5 255.9 C 55.5 255.7 55.6 255.4 55.6 255.2 C 55.7 254.4 55.8 253.7 55.9 252.9 C 56 252.1 56.1 251.4 56.2 250.6 C 56.3 249.9 56.4 249.2 56.5 248.5 C 56.6 247.7 56.7 247 56.8 246.2 C 56.8 245.9 56.9 245.6 56.9 245.3 C 56.9 245.2 56.9 245.2 57 245.2 C 58.2 245.2 59.5 245.2 60.7 245.2 C 60.8 245.2 60.8 245.3 60.8 245.3 C 60.9 245.8 60.9 246.3 61 246.7 C 61.1 247.6 61.3 248.6 61.4 249.5 C 61.5 250.4 61.6 251.2 61.8 252.1 C 61.9 253 62.1 253.8 62.2 254.7 C 62.2 255.1 62.2 255.5 62.3 255.9 Z M 59.3 252 C 59.2 250.6 59 249.2 58.9 247.7 C 58.9 247.7 58.9 247.7 58.9 247.7 C 58.7 249.1 58.6 250.5 58.4 252 C 58.7 252 59 252 59.3 252 Z" id="XMLID_241_" fill="#EEEEED"/><path d=" M 37.2 249.8 C 37.2 249.6 37.2 249.3 37.2 249.1 C 37.2 248.5 37.2 247.9 37.2 247.3 C 37.2 247.2 37.2 247.1 37.2 247 C 37.2 246.8 37 246.7 36.8 246.7 C 36.5 246.7 36.4 246.8 36.3 247 C 36.3 247.2 36.2 247.5 36.2 247.7 C 36.2 249.5 36.2 251.2 36.2 253 C 36.2 253.3 36.2 253.6 36.3 253.9 C 36.3 254.2 36.5 254.3 36.8 254.3 C 37 254.3 37.1 254.2 37.1 254 C 37.1 253.7 37.2 253.5 37.2 253.2 C 37.2 252.7 37.2 252.2 37.2 251.7 C 37.2 251.7 37.2 251.6 37.2 251.6 C 37.3 251.6 37.3 251.6 37.4 251.6 C 38.2 251.6 39 251.6 39.8 251.6 C 39.9 251.6 40 251.6 40 251.8 C 40 252.5 39.9 253.2 39.9 253.9 C 39.8 255 39.1 255.6 38.2 256 C 37.6 256.2 37 256.3 36.3 256.2 C 35.9 256.2 35.6 256.1 35.2 256 C 34.3 255.7 33.8 255 33.7 254.1 C 33.6 253.5 33.6 253 33.6 252.4 C 33.6 251.1 33.6 249.8 33.6 248.6 C 33.6 248.1 33.6 247.6 33.7 247.1 C 33.9 246.2 34.5 245.6 35.3 245.3 C 36.3 244.9 37.3 244.9 38.3 245.3 C 39.3 245.7 39.8 246.4 39.9 247.5 C 40 248.3 40 249.1 40 249.9 C 40 250 40 250 39.9 250 C 39 249.8 38.1 249.8 37.2 249.8 C 37.3 249.8 37.2 249.8 37.2 249.8 Z" id="XMLID_240_" fill="#EEEEED"/><path d=" M 85.9 249.8 C 85.9 249.5 85.9 249.2 85.9 248.9 C 85.9 248.4 85.9 247.9 85.9 247.4 C 85.9 247.3 85.9 247.2 85.9 247.2 C 85.9 246.9 85.8 246.8 85.5 246.8 C 85.2 246.8 85.1 246.9 85 247.1 C 85 247.3 84.9 247.5 84.9 247.7 C 84.9 249.4 84.9 251.2 84.9 252.9 C 84.9 253.2 84.9 253.5 85 253.8 C 85 254.1 85.2 254.2 85.5 254.2 C 85.7 254.2 85.8 254.1 85.8 253.9 C 85.8 253.6 85.9 253.4 85.9 253.1 C 85.9 252.6 85.9 252.1 85.9 251.6 C 85.9 251.6 85.9 251.5 85.9 251.5 C 86 251.5 86 251.5 86.1 251.5 C 86.9 251.5 87.7 251.5 88.5 251.5 C 88.6 251.5 88.7 251.5 88.7 251.7 C 88.7 252.4 88.6 253.1 88.6 253.7 C 88.5 254.8 87.8 255.4 86.9 255.8 C 86.3 256 85.7 256.1 85 256 C 84.6 256 84.3 255.9 84 255.8 C 83.1 255.5 82.6 254.8 82.5 253.9 C 82.4 253.3 82.4 252.8 82.4 252.2 C 82.4 250.9 82.4 249.6 82.4 248.3 C 82.4 247.8 82.4 247.3 82.5 246.8 C 82.7 245.9 83.3 245.3 84.1 245 C 85.1 244.6 86.1 244.6 87.1 245 C 88.1 245.4 88.6 246.1 88.7 247.1 C 88.8 247.9 88.8 248.7 88.8 249.5 C 88.8 249.6 88.8 249.6 88.7 249.6 C 87.7 249.8 86.8 249.8 85.9 249.8 C 85.9 249.8 85.9 249.8 85.9 249.8 Z" id="XMLID_239_" fill="#EEEEED"/><path d=" M 68.8 248.4 C 68 248.4 67.1 248.4 66.3 248.4 C 66.3 248.3 66.3 248.1 66.3 248 C 66.3 247.7 66.3 247.4 66.3 247.1 C 66.3 246.9 66.2 246.8 66 246.8 C 65.8 246.8 65.7 246.8 65.6 247 C 65.5 247.1 65.5 247.3 65.5 247.4 C 65.5 247.6 65.5 247.9 65.5 248.1 C 65.5 248.4 65.7 248.6 66 248.8 C 66.4 249.1 66.8 249.3 67.1 249.6 C 67.4 249.8 67.8 250.1 68.1 250.4 C 68.6 250.8 68.9 251.3 69 252 C 69.1 252.7 69.1 253.5 69 254.2 C 68.9 255 68.5 255.5 67.9 255.8 C 66.7 256.4 65.5 256.4 64.3 255.8 C 63.6 255.5 63.2 254.9 63.1 254.1 C 63 253.5 63 252.8 63 252.2 C 63 252.2 63 252.2 63 252.2 C 63.8 252.2 64.7 252.2 65.5 252.2 C 65.5 252.3 65.5 252.3 65.5 252.4 C 65.5 252.9 65.5 253.5 65.5 254 C 65.5 254.3 65.6 254.4 65.9 254.5 C 66.2 254.5 66.4 254.4 66.4 254.1 C 66.5 253.8 66.4 253.4 66.4 253 C 66.4 252.6 66.1 252.3 65.8 252 C 65.2 251.6 64.7 251.2 64.1 250.8 C 63.3 250.2 62.9 249.5 62.8 248.5 C 62.8 248 62.8 247.5 62.9 247 C 63 246.2 63.5 245.7 64.3 245.4 C 64.9 245.2 65.4 245.1 66 245.2 C 66.5 245.2 67 245.3 67.5 245.5 C 68.2 245.8 68.6 246.4 68.7 247.2 C 68.8 247.4 68.8 247.8 68.8 248.4 C 68.8 248.3 68.8 248.3 68.8 248.4 Z" id="XMLID_238_" fill="#EEEEED"/><path d=" M 79.2 253.7 C 79.9 253.7 80.5 253.7 81.2 253.7 C 81.2 254.4 81.2 255.1 81.2 255.8 C 79.6 255.8 78.1 255.8 76.5 255.8 C 76.5 252.2 76.5 248.7 76.5 245.1 C 78 245.1 79.5 245.1 81 245.1 C 81 245.8 81 246.5 81 247.3 C 80.4 247.3 79.8 247.3 79.2 247.3 C 79.2 248 79.2 248.6 79.2 249.3 C 79.8 249.3 80.3 249.3 80.9 249.3 C 80.9 250 80.9 250.7 80.9 251.4 C 80.4 251.4 79.8 251.4 79.2 251.4 C 79.2 252.1 79.2 252.9 79.2 253.7 Z" id="XMLID_237_" fill="#EEEEED"/><path d=" M 75.6 247.3 C 75.1 247.3 74.5 247.3 74 247.3 C 74 250.2 74 253 74 255.9 C 73.1 255.9 72.2 255.9 71.3 255.9 C 71.3 253.1 71.3 250.2 71.3 247.3 C 70.8 247.3 70.2 247.3 69.7 247.3 C 69.7 246.6 69.7 245.9 69.7 245.1 C 69.8 245.1 69.8 245.1 69.9 245.1 C 71.8 245.1 73.6 245.1 75.5 245.1 C 75.6 245.1 75.7 245.1 75.7 245.3 C 75.7 245.9 75.7 246.5 75.7 247.1 C 75.6 247.2 75.6 247.2 75.6 247.3 Z" id="XMLID_236_" fill="#EEEEED"/><path d=" M 33.8 257.5 C 52 257.5 70.1 257.5 88.3 257.5 C 88.3 257.6 88.3 257.8 88.3 257.9 C 88.3 257.9 88.2 257.9 88.2 257.9 C 70.2 257.9 52.2 257.9 34.2 257.9 C 34.2 257.9 34.2 257.9 34.2 257.9 C 33.8 257.9 33.8 257.9 33.8 257.5 Z" id="XMLID_235_" fill="#EEEEED"/><path d=" M 57.6 259 C 57.9 259 58.2 259 58.6 259 C 58.8 259 58.9 259.2 58.9 259.3 C 59 259.7 58.9 259.9 58.6 260.1 C 58.8 260.4 58.9 260.7 59.1 261 C 58.9 261 58.8 261 58.7 261 C 58.7 261 58.6 261 58.6 260.9 C 58.5 260.7 58.4 260.5 58.3 260.3 C 58.2 260.2 58.1 260.1 57.9 260.1 C 57.9 260.4 57.9 260.6 57.9 260.9 C 57.8 260.9 57.7 260.9 57.6 260.9 C 57.6 260.3 57.6 259.6 57.6 259 Z M 58 259.8 C 58.2 259.8 58.3 259.8 58.4 259.8 C 58.5 259.8 58.6 259.7 58.6 259.6 C 58.6 259.5 58.6 259.4 58.4 259.4 C 58.2 259.4 58.1 259.4 57.9 259.4 C 58 259.5 58 259.6 58 259.8 Z" id="XMLID_232_" fill="#EEEEED"/><path d=" M 69.3 259 C 69.6 259 69.9 259 70.2 259 C 70.4 259 70.5 259.2 70.5 259.3 C 70.6 259.7 70.5 259.9 70.2 260.1 C 70.4 260.4 70.5 260.7 70.7 261 C 70.5 261 70.4 261 70.3 261 C 70.3 261 70.2 261 70.2 260.9 C 70.1 260.7 70 260.5 69.9 260.3 C 69.8 260.2 69.7 260.1 69.5 260.1 C 69.5 260.2 69.5 260.4 69.5 260.5 C 69.5 260.6 69.5 260.8 69.5 260.9 C 69.4 260.9 69.3 260.9 69.2 260.9 C 69.3 260.3 69.3 259.6 69.3 259 Z M 69.6 259.8 C 69.8 259.8 69.9 259.8 70.1 259.8 C 70.2 259.8 70.3 259.7 70.3 259.6 C 70.3 259.5 70.3 259.4 70.1 259.4 C 69.9 259.4 69.8 259.4 69.6 259.4 C 69.6 259.5 69.6 259.6 69.6 259.8 Z" id="XMLID_229_" fill="#EEEEED"/><path d=" M 52.4 258.9 C 52.4 259.6 52.4 260.2 52.4 260.9 C 52.3 260.9 52.2 260.9 52.1 260.9 C 52.1 260.9 52 260.8 52 260.8 C 51.8 260.5 51.7 260.2 51.5 259.9 C 51.5 259.8 51.4 259.8 51.4 259.7 C 51.4 260.1 51.4 260.5 51.4 260.9 C 51.3 260.9 51.2 260.9 51.1 260.9 C 51.1 260.2 51.1 259.6 51.1 259 C 51.3 258.9 51.4 259 51.5 259.2 C 51.7 259.5 51.8 259.9 52 260.2 C 52 260.2 52 260.2 52.1 260.3 C 52.1 259.9 52.1 259.5 52.1 259 C 52.2 258.9 52.3 258.9 52.4 258.9 Z" id="XMLID_228_" fill="#EEEEED"/><path d=" M 45 260.9 C 45 260.2 45 259.6 45 258.9 C 45.3 258.8 45.3 258.9 45.4 259.1 C 45.6 259.4 45.7 259.8 45.9 260.1 C 45.9 259.7 45.9 259.3 45.9 258.9 C 45.9 258.9 46 258.9 46 258.9 C 46.2 258.9 46.3 258.9 46.3 259.1 C 46.3 259.6 46.3 260.2 46.3 260.7 C 46.3 260.8 46.3 260.8 46.3 260.9 C 46.2 260.9 46.1 260.9 46.1 260.9 C 46 260.9 46 260.9 45.9 260.8 C 45.7 260.5 45.6 260.1 45.4 259.8 C 45.4 259.8 45.4 259.7 45.3 259.7 C 45.3 260.1 45.3 260.5 45.3 260.9 C 45.2 260.9 45.1 260.9 45 260.9 Z" id="XMLID_227_" fill="#EEEEED"/><path d=" M 78.3 260.9 C 78.3 260.9 78.3 260.9 78.3 260.9 C 78 260.9 78 260.9 77.8 260.7 C 77.7 260.4 77.5 260.1 77.4 259.9 C 77.4 259.9 77.4 259.8 77.3 259.8 C 77.3 260.2 77.3 260.6 77.3 261 C 77.2 261 77.1 261 77 261 C 77 260.3 77 259.7 77 259.1 C 77.3 259 77.3 259.1 77.4 259.3 C 77.6 259.6 77.8 260 77.9 260.3 C 77.9 259.9 77.9 259.5 77.9 259.1 C 78 259.1 78.1 259.1 78.2 259.1 C 78.2 259.1 78.3 259.2 78.3 259.2 C 78.3 259.6 78.3 260.3 78.3 260.9 Z" id="XMLID_226_" fill="#EEEEED"/><path d=" M 57.2 259.5 C 57.1 259.5 57 259.5 56.9 259.6 C 56.8 259.4 56.7 259.3 56.5 259.3 C 56.3 259.3 56.2 259.4 56.1 259.6 C 56 259.8 56 260.1 56.1 260.3 C 56.2 260.6 56.6 260.7 56.8 260.5 C 56.9 260.4 56.9 260.3 56.9 260.2 C 56.7 260.2 56.6 260.2 56.5 260.2 C 56.5 260.1 56.5 260 56.5 259.9 C 56.5 259.9 56.5 259.8 56.6 259.8 C 56.8 259.8 57 259.8 57.2 259.8 C 57.2 260.1 57.2 260.3 57.2 260.6 C 57.2 260.6 57.1 260.7 57.1 260.7 C 56.8 260.9 56.5 261 56.2 260.8 C 55.9 260.7 55.8 260.4 55.7 260.1 C 55.7 259.8 55.7 259.5 55.8 259.3 C 56 258.9 56.4 258.8 56.8 258.9 C 57.1 259 57.2 259.2 57.2 259.5 Z" id="XMLID_225_" fill="#EEEEED"/><path d=" M 81.7 259.5 C 81.6 259.5 81.5 259.5 81.4 259.6 C 81.3 259.4 81.3 259.3 81 259.3 C 80.8 259.3 80.6 259.4 80.6 259.6 C 80.5 259.8 80.5 260.1 80.6 260.3 C 80.7 260.6 81.1 260.7 81.3 260.5 C 81.4 260.4 81.4 260.3 81.4 260.2 C 81.2 260.2 81.1 260.2 81 260.2 C 80.9 259.9 80.9 259.9 81.2 259.9 C 81.3 259.9 81.5 259.9 81.6 259.9 C 81.6 260.2 81.6 260.4 81.6 260.7 C 81.6 260.7 81.5 260.8 81.5 260.8 C 81.2 261 80.9 261.1 80.6 260.9 C 80.3 260.8 80.2 260.5 80.1 260.2 C 80.1 259.9 80.1 259.6 80.2 259.4 C 80.4 259 80.8 258.9 81.2 259 C 81.5 259 81.7 259.3 81.7 259.5 Z" id="XMLID_224_" fill="#EEEEED"/><path d=" M 83.5 260.5 C 83.5 260.6 83.4 260.7 83.3 260.8 C 83.2 260.9 83 260.9 82.9 260.9 C 82.6 260.9 82.3 260.8 82.2 260.5 C 82 260.1 82 259.7 82.2 259.3 C 82.3 259 82.5 258.9 82.8 258.9 C 83 258.9 83.1 258.9 83.3 259 C 83.4 259.1 83.4 259.2 83.5 259.2 C 83.6 259.5 83.6 259.7 83.6 259.8 C 83.6 260.1 83.6 260.3 83.5 260.5 Z M 82.4 259.9 C 82.4 260 82.4 260.1 82.5 260.3 C 82.5 260.4 82.6 260.5 82.7 260.5 C 82.8 260.6 83 260.5 83 260.5 C 83.1 260.4 83.2 260.3 83.3 260.2 C 83.5 259.9 83.3 259.5 83.3 259.4 C 83.2 259.3 83.2 259.2 83.1 259.2 C 83 259.2 83 259.1 82.9 259.1 C 82.8 259.1 82.7 259.1 82.6 259.2 C 82.5 259.2 82.5 259.3 82.5 259.4 C 82.4 259.7 82.4 259.8 82.4 259.9 Z" id="XMLID_220_" fill="#EEEEED"/><path d=" M 55.5 260.9 C 55.1 260.9 54.7 260.9 54.3 260.9 C 54.3 260.2 54.3 259.6 54.3 258.9 C 54.4 258.9 54.5 258.9 54.6 258.9 C 54.9 258.9 55.1 258.9 55.4 258.9 C 55.5 258.9 55.6 258.9 55.5 259 C 55.5 259.1 55.6 259.2 55.4 259.2 C 55.2 259.2 54.9 259.2 54.7 259.2 C 54.7 259.3 54.7 259.5 54.7 259.6 C 54.9 259.6 55.1 259.6 55.3 259.6 C 55.6 259.6 55.6 259.6 55.5 259.9 C 55.5 259.9 55.5 259.9 55.5 260 C 55.4 260 55.2 260 55.1 260 C 55 260 54.8 260 54.7 260 C 54.7 260.2 54.7 260.3 54.7 260.5 C 54.9 260.5 55.2 260.5 55.4 260.5 C 55.6 260.5 55.6 260.5 55.6 260.7 C 55.5 260.8 55.5 260.9 55.5 260.9 Z" id="XMLID_218_" fill="#EEEEED"/><path d=" M 62.4 260.9 C 62.4 260.2 62.4 259.6 62.4 258.9 C 62.4 258.9 62.5 258.9 62.5 258.9 C 62.8 258.9 63.1 258.9 63.4 258.9 C 63.5 258.9 63.5 259 63.5 259.1 C 63.5 259.2 63.5 259.3 63.4 259.3 C 63.2 259.3 62.9 259.3 62.7 259.3 C 62.7 259.4 62.7 259.6 62.7 259.7 C 62.9 259.7 63.1 259.7 63.3 259.7 C 63.6 259.7 63.6 259.7 63.5 260 C 63.5 260 63.5 260 63.5 260.1 C 63.2 260.1 63 260.1 62.7 260.1 C 62.7 260.3 62.7 260.4 62.7 260.6 C 62.9 260.6 63.2 260.6 63.4 260.6 C 63.5 260.6 63.6 260.6 63.6 260.8 C 63.6 260.8 63.6 260.9 63.6 261 C 63.2 260.9 62.8 260.9 62.4 260.9 Z" id="XMLID_217_" fill="#EEEEED"/><path d=" M 78.7 260.9 C 78.7 260.2 78.7 259.6 78.7 258.9 C 78.7 258.9 78.8 258.9 78.8 258.9 C 79.1 258.9 79.4 258.9 79.8 258.9 C 79.9 258.9 79.9 259 79.9 259.1 C 79.9 259.2 79.9 259.3 79.8 259.3 C 79.6 259.3 79.3 259.3 79.1 259.3 C 79.1 259.4 79.1 259.6 79.1 259.7 C 79.3 259.7 79.5 259.7 79.7 259.7 C 80 259.7 80 259.7 79.9 260 C 79.9 260 79.9 260 79.9 260.1 C 79.6 260.1 79.4 260.1 79.1 260.1 C 79.1 260.3 79.1 260.4 79.1 260.6 C 79.2 260.6 79.4 260.6 79.6 260.6 C 79.7 260.6 79.7 260.6 79.8 260.6 C 80.1 260.6 80.1 260.6 80.1 260.9 C 79.5 260.9 79.1 260.9 78.7 260.9 Z" id="XMLID_216_" fill="#EEEEED"/><path d=" M 47.9 260.9 C 47.5 260.9 47.1 260.9 46.7 260.9 C 46.7 260.2 46.7 259.6 46.7 258.9 C 46.8 258.9 46.9 258.9 46.9 258.9 C 47.2 258.9 47.4 258.9 47.7 258.9 C 47.8 258.9 47.8 258.9 47.8 259 C 47.8 259.2 47.8 259.2 47.6 259.2 C 47.4 259.2 47.2 259.2 47 259.2 C 47 259.3 47 259.5 47 259.6 C 47.2 259.6 47.4 259.6 47.6 259.6 C 47.8 259.6 47.8 259.6 47.8 259.8 C 47.8 259.8 47.8 259.9 47.8 260 C 47.5 260 47.3 260 47 260 C 47 260.2 47 260.3 47 260.5 C 47.2 260.5 47.4 260.5 47.6 260.5 C 47.9 260.6 47.9 260.6 47.9 260.9 Z" id="XMLID_215_" fill="#EEEEED"/><path d=" M 35.5 259.5 C 35.4 259.5 35.3 259.5 35.2 259.5 C 35.1 259.2 35 259.2 34.8 259.2 C 34.7 259.2 34.7 259.3 34.7 259.3 C 34.7 259.4 34.8 259.5 34.8 259.5 C 34.9 259.6 35.1 259.6 35.2 259.6 C 35.6 259.7 35.7 260.1 35.6 260.5 C 35.5 260.8 35.3 260.8 35 260.9 C 34.7 260.9 34.5 260.8 34.4 260.6 C 34.4 260.6 34.4 260.6 34.4 260.6 C 34.3 260.2 34.3 260.2 34.7 260.3 C 34.7 260.4 34.7 260.4 34.7 260.5 C 34.8 260.7 35.1 260.8 35.2 260.6 C 35.3 260.5 35.3 260.3 35.1 260.2 C 35 260.1 34.8 260.1 34.7 260.1 C 34.4 260 34.3 259.8 34.3 259.4 C 34.3 259.1 34.6 258.9 34.9 258.9 C 35.3 258.9 35.5 259.2 35.5 259.5 Z" id="XMLID_214_" fill="#EEEEED"/><path d=" M 48.4 260.2 C 48.4 260.3 48.4 260.3 48.5 260.4 C 48.6 260.6 48.9 260.7 49 260.5 C 49.1 260.4 49.1 260.2 48.9 260.1 C 48.8 260 48.6 260 48.5 260 C 48.2 259.9 48.1 259.7 48.1 259.3 C 48.1 259.3 48.1 259.2 48.1 259.2 C 48.2 258.9 48.5 258.8 48.9 258.9 C 49.2 259 49.3 259.2 49.3 259.5 C 49.2 259.5 49.1 259.5 49.1 259.5 C 49.1 259.5 49 259.5 49 259.4 C 48.9 259.2 48.7 259.1 48.5 259.2 C 48.5 259.2 48.4 259.3 48.4 259.3 C 48.4 259.4 48.5 259.4 48.5 259.5 C 48.6 259.6 48.8 259.6 48.9 259.6 C 49.3 259.7 49.4 260.1 49.3 260.5 C 49.2 260.7 49 260.8 48.7 260.8 C 48.4 260.8 48.2 260.7 48.1 260.5 C 48.1 260.5 48.1 260.5 48.1 260.5 C 48 260.3 48.1 260.2 48.4 260.2 Z" id="XMLID_212_" fill="#EEEEED"/><path d=" M 63.9 260.3 C 64 260.3 64.1 260.3 64.2 260.3 C 64.2 260.4 64.2 260.4 64.2 260.5 C 64.3 260.7 64.4 260.8 64.6 260.7 C 64.7 260.7 64.8 260.6 64.8 260.5 C 64.8 260.4 64.7 260.3 64.6 260.3 C 64.5 260.3 64.4 260.2 64.2 260.2 C 63.9 260.1 63.8 259.8 63.8 259.5 C 63.9 259.2 64.1 259.1 64.5 259.1 C 64.9 259.1 65 259.4 65 259.7 C 64.9 259.7 64.8 259.7 64.7 259.7 C 64.6 259.4 64.5 259.4 64.3 259.4 C 64.2 259.4 64.2 259.5 64.1 259.6 C 64.1 259.7 64.1 259.8 64.2 259.8 C 64.3 259.8 64.5 259.9 64.6 259.9 C 65 260 65.1 260.4 65 260.8 C 64.9 261.1 64.7 261.2 64.4 261.2 C 64.1 261.2 63.9 261.1 63.8 260.9 C 63.9 260.5 63.9 260.4 63.9 260.3 Z" id="XMLID_211_" fill="#EEEEED"/><path d=" M 67.8 260.9 C 67.7 260.9 67.6 260.9 67.4 260.9 C 67.5 260.5 67.7 260.1 67.8 259.7 C 67.9 259.5 67.9 259.3 68 259.1 C 68 259 68.1 259 68.2 259 C 68.2 259 68.3 259 68.3 259 C 68.4 259 68.5 259 68.5 259.2 C 68.7 259.8 68.9 260.3 69 260.9 C 69 260.9 69 261 69 261 C 68.9 261 68.8 261 68.7 261 C 68.7 261 68.6 261 68.6 260.9 C 68.6 260.8 68.5 260.7 68.5 260.5 C 68.3 260.5 68.1 260.5 67.9 260.5 C 67.9 260.6 67.8 260.8 67.8 260.9 Z M 68.2 259.4 C 68.1 259.7 68.1 259.9 68 260.1 C 68.1 260.1 68.3 260.1 68.4 260.1 C 68.4 259.9 68.3 259.7 68.2 259.4 Z" id="XMLID_206_" fill="#EEEEED"/><path d=" M 71.3 260.5 C 71.3 260.7 71.2 260.8 71.2 260.9 C 71.1 260.9 71 260.9 70.8 260.9 C 70.9 260.5 71 260.2 71.1 259.8 C 71.2 259.5 71.3 259.3 71.3 259 C 71.3 258.9 71.4 258.9 71.5 258.9 C 71.6 258.9 71.6 258.9 71.7 258.9 C 71.7 258.9 71.8 258.9 71.8 259 C 72 259.6 72.2 260.2 72.4 260.8 C 72.4 260.8 72.4 260.8 72.4 260.9 C 72.3 260.9 72.2 260.9 72.1 260.9 C 72.1 260.9 72 260.9 72 260.8 C 72 260.8 72 260.8 72 260.8 C 72 260.7 71.9 260.5 71.9 260.4 C 71.8 260.3 71.6 260.4 71.5 260.4 C 71.4 260.5 71.4 260.5 71.3 260.5 Z M 71.6 259.4 C 71.5 259.7 71.5 259.9 71.4 260.1 C 71.5 260.1 71.7 260.1 71.8 260.1 C 71.7 259.9 71.7 259.7 71.6 259.4 Z" id="XMLID_203_" fill="#EEEEED"/><path d=" M 60.7 260.9 C 60.3 260.9 60.3 260.9 60.3 260.6 C 60.3 260.6 60.3 260.5 60.3 260.5 C 60.1 260.5 59.9 260.5 59.7 260.5 C 59.7 260.6 59.6 260.7 59.6 260.8 C 59.6 260.9 59.5 260.9 59.5 260.9 C 59.4 260.9 59.3 260.9 59.2 260.9 C 59.3 260.6 59.4 260.3 59.5 260 C 59.6 259.7 59.7 259.4 59.8 259.1 C 59.8 259 59.9 259 60 259 C 60.1 259 60.1 259 60.2 259 C 60.2 259 60.3 259.1 60.3 259.1 C 60.3 259.6 60.5 260.2 60.7 260.9 C 60.7 260.9 60.7 260.9 60.7 260.9 Z M 60.1 260.1 C 60 259.9 60 259.7 59.9 259.4 C 59.8 259.7 59.8 259.9 59.7 260.1 C 59.9 260.1 60 260.1 60.1 260.1 Z" id="XMLID_200_" fill="#EEEEED"/><path d=" M 40.4 259.8 C 40.4 260 40.4 260.3 40.3 260.6 C 40.3 260.8 40.1 261 39.9 261 C 39.8 261 39.7 261 39.6 261 C 39.3 261 39.2 260.8 39.1 260.5 C 39.1 260.2 39.1 259.9 39.1 259.5 C 39.1 259.4 39.1 259.3 39.1 259.2 C 39.1 259 39.2 258.9 39.4 259 C 39.4 259 39.5 259.1 39.5 259.1 C 39.5 259.4 39.5 259.8 39.5 260.1 C 39.5 260.2 39.5 260.3 39.5 260.3 C 39.5 260.5 39.6 260.6 39.8 260.6 C 40 260.6 40.1 260.5 40.1 260.3 C 40.1 259.9 40.1 259.5 40.1 259.1 C 40.1 258.9 40.1 258.9 40.3 258.9 C 40.4 258.9 40.4 259 40.4 259.1 C 40.4 259.3 40.4 259.5 40.4 259.8 Z" id="XMLID_199_" fill="#EEEEED"/><path d=" M 75 258.9 C 75 259.3 75 259.7 75 260.1 C 75 260.2 75 260.3 75 260.3 C 75 260.5 75.1 260.6 75.3 260.6 C 75.5 260.6 75.6 260.5 75.6 260.3 C 75.6 259.9 75.6 259.5 75.6 259.1 C 75.6 258.9 75.7 259 75.8 259 C 75.9 259 75.9 259 75.9 259.2 C 75.9 259.6 75.9 260 75.9 260.4 C 75.9 260.9 75.5 261.2 75 261 C 74.8 260.9 74.7 260.7 74.7 260.5 C 74.7 260 74.7 259.6 74.7 259.1 C 74.7 259.1 74.8 259 74.8 259 C 74.8 258.9 74.9 258.9 75 258.9 Z" id="XMLID_198_" fill="#EEEEED"/><path d=" M 66.5 260.9 C 66.4 260.9 66.3 260.9 66.2 260.9 C 66.2 260.3 66.2 259.6 66.2 258.9 C 66.4 258.9 66.6 258.9 66.9 258.9 C 67.1 258.9 67.3 259 67.4 259.2 C 67.5 259.4 67.5 259.7 67.4 259.9 C 67.3 260.1 67.1 260.1 66.9 260.1 C 66.8 260.1 66.7 260.1 66.6 260.1 C 66.5 260.4 66.5 260.7 66.5 260.9 Z M 66.6 259.8 C 66.8 259.8 67 259.9 67.1 259.7 C 67.2 259.6 67.2 259.5 67.1 259.4 C 67 259.3 66.8 259.3 66.6 259.3 C 66.6 259.5 66.6 259.7 66.6 259.8 Z" id="XMLID_195_" fill="#EEEEED"/><path d=" M 41.8 260.2 C 41.9 260.2 42 260.3 42.1 260.3 C 42.1 260.6 41.9 260.9 41.6 260.9 C 41.3 261 41 260.9 40.9 260.6 C 40.7 260.2 40.7 259.5 40.9 259.2 C 41.1 259 41.4 258.9 41.6 258.9 C 41.8 259 42 259.2 42 259.5 C 41.9 259.5 41.8 259.6 41.7 259.6 C 41.7 259.6 41.7 259.5 41.7 259.5 C 41.7 259.4 41.6 259.3 41.4 259.3 C 41.2 259.3 41.1 259.4 41.1 259.5 C 41 259.8 41 260.1 41.1 260.4 C 41.2 260.5 41.3 260.6 41.4 260.6 C 41.5 260.6 41.6 260.5 41.7 260.4 C 41.8 260.3 41.8 260.3 41.8 260.2 Z" id="XMLID_194_" fill="#EEEEED"/><path d=" M 85.2 259.5 C 85.1 259.5 85 259.6 84.9 259.6 C 84.9 259.6 84.9 259.5 84.9 259.5 C 84.9 259.4 84.8 259.3 84.6 259.3 C 84.4 259.3 84.3 259.4 84.3 259.5 C 84.2 259.8 84.2 260.1 84.3 260.4 C 84.4 260.5 84.5 260.6 84.6 260.6 C 84.7 260.6 84.8 260.5 84.9 260.4 C 84.9 260.3 84.9 260.3 85 260.2 C 85.1 260.2 85.2 260.3 85.3 260.3 C 85.3 260.6 85.1 260.9 84.8 260.9 C 84.5 261 84.2 260.9 84.1 260.6 C 83.9 260.2 83.9 259.5 84.1 259.2 C 84.3 259 84.5 258.9 84.8 258.9 C 85 259 85.2 259.2 85.2 259.5 Z" id="XMLID_193_" fill="#EEEEED"/><path d=" M 74.4 259.3 C 74.2 259.3 74.1 259.3 73.9 259.3 C 73.9 259.8 73.9 260.4 73.9 260.9 C 73.8 260.9 73.7 260.9 73.6 260.9 C 73.6 260.4 73.6 259.8 73.6 259.3 C 73.5 259.3 73.4 259.3 73.2 259.3 C 73.1 259.3 73.1 259.3 73.1 259.2 C 73.1 259.2 73.1 259.1 73.1 259.1 C 73.1 259 73.1 259 73.2 259 C 73.6 259 73.9 259 74.3 259 C 74.4 259 74.4 259 74.4 259.1 C 74.4 259.1 74.4 259.2 74.4 259.3 Z" id="XMLID_192_" fill="#EEEEED"/><path d=" M 53.2 259.3 C 53.1 259.3 53 259.3 52.8 259.3 C 52.7 259.3 52.7 259.3 52.7 259.2 C 52.7 259.2 52.7 259.1 52.7 259.1 C 52.7 259 52.7 259 52.8 259 C 53.2 259 53.5 259 53.9 259 C 54 259 54 259 54 259.1 C 54 259.2 54 259.3 54 259.3 C 53.8 259.3 53.7 259.3 53.5 259.3 C 53.5 259.8 53.5 260.4 53.5 260.9 C 53.4 260.9 53.3 260.9 53.2 260.9 C 53.2 260.4 53.2 259.8 53.2 259.3 Z" id="XMLID_191_" fill="#EEEEED"/><path d=" M 38 260.6 C 38.2 260.6 38.4 260.6 38.7 260.6 C 38.8 260.6 38.9 260.6 38.9 260.8 C 38.9 260.8 38.9 260.9 38.9 261 C 38.5 261 38.2 261 37.8 261 C 37.8 261 37.8 260.9 37.8 260.9 C 37.8 260.3 37.8 259.8 37.8 259.2 C 37.8 259 37.9 259.1 38 259.1 C 38.1 259.1 38.2 259.1 38.2 259.2 C 38.2 259.6 38.2 260.1 38.2 260.5 C 38 260.5 38 260.5 38 260.6 Z" id="XMLID_190_" fill="#EEEEED"/><path d=" M 61.3 260.6 C 61.6 260.6 61.8 260.6 62.1 260.6 C 62.1 260.7 62.1 260.8 62.1 260.9 C 61.7 260.9 61.4 260.9 61 260.9 C 61 260.3 61 259.6 61 259 C 61 259 61 259 61 259 C 61.3 259 61.3 259 61.3 259.3 C 61.3 259.7 61.3 260.1 61.3 260.6 Z" id="XMLID_189_" fill="#EEEEED"/><path d=" M 42.8 260.9 C 42.5 260.9 42.5 260.9 42.5 260.6 C 42.5 260.1 42.5 259.6 42.5 259.1 C 42.5 258.9 42.6 259 42.7 258.9 C 42.8 258.9 42.9 258.9 42.9 259.1 C 42.9 259.7 42.9 260.2 42.9 260.8 C 42.8 260.8 42.8 260.8 42.8 260.9 Z" id="XMLID_188_" fill="#EEEEED"/><path d=" M 50.8 260.9 C 50.7 260.9 50.6 260.9 50.5 260.9 C 50.5 260.9 50.5 260.8 50.5 260.8 C 50.5 260.2 50.5 259.7 50.5 259.1 C 50.5 258.9 50.6 259 50.7 258.9 C 50.8 258.9 50.9 258.9 50.9 259.1 C 50.9 259.7 50.9 260.2 50.9 260.8 C 50.8 260.8 50.8 260.8 50.8 260.9 Z" id="XMLID_187_" fill="#EEEEED"/><path d=" M 85.9 260.9 C 85.8 260.9 85.7 260.9 85.6 260.9 C 85.6 260.8 85.6 260.8 85.6 260.7 C 85.6 260.2 85.6 259.6 85.6 259.1 C 85.6 258.9 85.6 258.9 85.8 258.9 C 85.8 258.9 85.9 258.9 85.9 258.9 C 85.9 259.6 85.9 260.3 85.9 260.9 Z" id="XMLID_186_" fill="#EEEEED"/></g><g id="XMLID_180_"><linearGradient x1="26.377" y1="243.397" x2="26.377" y2="257.906" gradientUnits="userSpaceOnUse" id="XMLID_333_"><stop offset="0" stop-color="#070308"/><stop offset="0.3625" stop-color="#121111"/><stop offset="0.425" stop-color="#292624"/><stop offset="0.5564" stop-color="#585352"/><stop offset="0.7442" stop-color="#C9C6C8"/><stop offset="0.8133" stop-color="#FFFFFF"/></linearGradient><linearGradient x1="21.3839" y1="251.534" x2="21.3839" y2="262.236" gradientUnits="userSpaceOnUse" id="XMLID_334_"><stop offset="0" stop-color="#070308"/><stop offset="0.2625" stop-color="#121111"/><stop offset="0.3481" stop-color="#292624"/><stop offset="0.528" stop-color="#585352"/><stop offset="0.7853" stop-color="#C9C6C8"/><stop offset="0.88" stop-color="#FFFFFF"/></linearGradient><path d=" M 30 253.9 L 21.2 262.2 L 13.1 253.8 L 22 245.2 Z" id="XMLID_184_" fill="#111E4E"/><path d=" M 17.5 258.4 L 17.7 253.1 C 17.7 253.1 17.7 253 17.8 252.9 L 19.5 251.6 C 19.5 251.6 19.6 251.6 19.8 251.6 L 19.9 249 C 19.9 249 19.9 249 19.9 248.9 C 19.9 248.8 25.6 243.4 25.6 243.4 L 27.1 244.7 L 27.2 256.6 L 21.2 262.3 L 17.5 258.4 Z" id="XMLID_183_" fill="#FFFFFF"/><path d=" M 25.6 243.4 L 25.8 257.9 L 27.2 256.6 L 27 244.6 Z" id="XMLID_182_" fill="url(#XMLID_333_)"/><path d=" M 20.7 253.1 L 22.6 251.5 L 22.4 261.1 L 21.2 262.2 L 20.2 261.2 Z" id="XMLID_181_" fill="url(#XMLID_334_)"/></g></g><g id="XMLID_135_"><path d=" M 219.9 151.5 C 219.7 151.5 219.7 151.6 219.7 151.7 C 219.7 152.1 219.7 152.5 219.7 152.9 C 219.7 153.1 219.6 153.1 219.5 153.1 C 218.8 153.2 218.1 153.2 217.4 153.3 C 216.5 153.4 215.5 153.5 214.6 153.5 C 213.9 153.6 213.2 153.6 212.5 153.7 C 211.5 153.8 210.6 153.9 209.6 154 C 209.6 154 209.6 154 209.6 154 C 209.2 154.1 209.2 154.1 209.2 153.6 C 209.2 150.1 209.2 146.7 209.2 143.2 C 209.2 142.9 209.3 142.9 209.5 142.9 C 210.3 143 211 143 211.8 143.1 C 212.4 143.7 212.9 144.2 213.5 144.8 C 214 145.3 214.5 145.8 215 146.3 C 215.3 146.6 215.7 147 216 147.3 C 216.3 147.6 216.7 148 217 148.3 C 217.3 148.6 217.7 149 218 149.3 C 218.4 149.7 218.7 150 219.1 150.4 C 219.4 150.6 219.6 150.9 219.8 151.2 C 219.9 151.3 220 151.4 219.9 151.5 Z" id="XMLID_178_" fill="#EEEEED"/><path d=" M 219.9 151.5 C 219.9 151.4 219.9 151.4 219.8 151.3 C 219.4 150.8 218.9 150.4 218.5 149.9 C 218.1 149.6 217.8 149.2 217.5 148.9 C 217.1 148.6 216.8 148.2 216.5 147.9 C 216.3 147.7 216.1 147.5 215.9 147.3 C 215.7 147.1 215.5 146.9 215.3 146.7 C 214.8 146.2 214.3 145.7 213.9 145.2 C 213.4 144.7 212.9 144.3 212.4 143.8 C 212.2 143.6 211.8 143.4 211.8 143.1 C 212.5 143.2 213.2 143.2 213.9 143.3 C 214.6 143.4 215.3 143.4 216 143.5 C 217 143.6 217.9 143.7 218.9 143.7 C 219.6 143.7 220.3 143.7 220.9 143.7 C 221.3 143.8 221.5 144.3 221.9 144.6 C 222 144.7 222.1 144.8 222.2 144.9 C 222.3 145 222.3 145 222.3 145 C 222.4 145.1 222.5 145.1 222.6 145.1 C 222.4 145.1 222.2 145.1 222 145.1 C 221.4 145.1 220.8 145.1 220.2 145.1 C 220.1 145.1 220 145.1 220 145.2 C 219.9 145.3 219.9 145.4 219.9 145.4 C 219.9 146.9 219.9 148.3 219.9 149.8 C 219.9 150 220 150.1 220.2 150.1 C 220.6 150.1 221 150.1 221.5 150.1 C 221.7 150.1 221.9 150.1 222 150.2 C 223.5 151 225 151.8 226.6 152.7 C 227.9 153.4 229.2 154.1 230.5 154.8 C 231.5 155.3 232.5 155.9 233.5 156.4 C 233.5 156.4 233.6 156.4 233.7 156.4 C 233.8 156.4 233.9 156.3 233.9 156.3 C 236.1 154.7 238.2 153.1 240.4 151.6 C 240.4 151.8 240.5 152.1 240.7 152.4 C 240.8 152.6 241 152.7 241.1 152.8 C 240.3 153.4 239.5 154 238.7 154.6 C 237.2 155.7 235.6 156.9 234.1 158 C 233.9 158.1 233.8 158.1 233.7 158 C 230.4 156.2 227 154.4 223.7 152.6 C 223 152.2 222.4 151.9 221.7 151.5 C 221.5 151.4 221.4 151.4 221.2 151.4 C 220.6 151.6 220.2 151.5 219.9 151.5 Z" id="XMLID_177_" fill="#EEEEED"/><path d=" M 241.6 123.8 L 239.1 123.8 C 238.1 123.8 237.3 124.5 237.3 125.6 C 237.3 130.7 237.3 135.9 237.3 141 C 237.3 142 238.1 142.9 239.1 142.9 C 239.9 142.9 240.7 142.9 241.5 142.9 C 242.6 142.9 243.4 142.2 243.4 141 L 243.4 133.4 C 243.4 130.8 243.4 128.3 243.4 125.7 C 243.4 124.5 242.7 123.8 241.6 123.8 Z M 242 141.1 C 242 141.4 241.8 141.5 241.6 141.5 C 240.8 141.5 240 141.5 239.2 141.5 C 238.7 141.5 238.6 141.4 238.6 140.9 C 238.6 140.2 238.6 139.6 238.6 138.9 C 238.6 138.2 238.6 137.5 238.6 136.8 C 238.6 136.3 238.6 135.7 238.6 135.2 C 238.6 134.8 238.6 134.4 238.6 134 C 238.6 131.2 238.6 128.4 238.6 125.6 C 238.6 125.1 238.7 125 239.2 125 C 239.9 125 240.7 125 241.4 125 C 241.9 125 242 125.1 242 125.6 L 242 140.5 C 242 140.7 242.1 140.9 242 141.1 Z" id="XMLID_174_" fill="#EEEEED"/><path d=" M 234.4 129.1 C 234 129.1 233.7 129.1 233.3 129.1 C 232.8 129.1 232.3 129.2 231.8 129.1 C 230.7 129 229.9 129.9 229.9 130.9 C 229.9 132.6 229.9 134.3 229.9 136 C 229.9 136 229.9 136 229.9 136 C 229.9 137.7 229.9 139.4 229.9 141.1 C 229.9 142.1 230.6 142.8 231.6 142.8 C 232.5 142.8 233.4 142.8 234.3 142.8 C 235.3 142.8 236 142 236 141.1 C 236 137.7 236 134.3 236 130.8 C 236 129.9 235.3 129.2 234.4 129.1 Z M 234.2 141.4 C 233.3 141.5 232.5 141.4 231.6 141.4 C 231.3 141.4 231.2 141.2 231.2 140.9 C 231.2 139.2 231.2 137.5 231.2 135.9 C 231.2 134.2 231.2 132.6 231.2 130.9 C 231.2 130.5 231.3 130.4 231.7 130.4 C 232.5 130.4 233.3 130.4 234.1 130.4 C 234.5 130.4 234.6 130.5 234.6 130.9 C 234.6 134.2 234.6 137.6 234.6 140.9 C 234.7 141.3 234.5 141.4 234.2 141.4 Z" id="XMLID_170_" fill="#EEEEED"/><path d=" M 238 148.2 C 237.9 148.2 237.8 148.1 237.8 148 C 237.8 147.7 237.5 147.5 237.3 147.3 C 236.7 147.7 236 148.1 235.4 148.6 C 235.3 148.7 235.2 148.7 235.1 148.5 C 234.7 147.4 234 146.6 232.9 146.3 C 230.4 145.6 227.8 144.9 225.3 144.2 C 224.8 144.1 224.4 143.9 223.9 143.8 C 222.9 143.7 221.9 143.8 220.9 143.8 C 221.2 144 221.4 144.2 221.6 144.5 C 221.8 144.7 222 144.9 222.2 145.1 L 222.2 145.1 C 222.3 145.2 222.4 145.2 222.5 145.2 C 222.8 145.2 223.1 145.2 223.3 145.2 C 223.4 145.2 223.6 145.2 223.7 145.3 C 223.9 145.5 224.2 145.6 224.4 145.8 C 227.3 147.7 230.3 149.5 233.2 151.4 C 233.2 151.4 233.3 151.5 233.5 151.5 C 233.6 151.5 233.7 151.4 233.8 151.4 C 234 151.3 235.9 150 238.5 148.2 C 238.5 148.2 238.2 148.3 238 148.2 Z M 233.7 149.7 C 233.6 149.8 233.5 149.7 233.4 149.7 C 231.7 148.6 230 147.6 228.3 146.5 C 228.3 146.5 228.2 146.4 228.2 146.4 C 228.2 146.4 228.2 146.4 228.2 146.4 C 229.6 146.8 231.1 147.2 232.5 147.6 C 233.3 147.8 233.8 148.6 233.9 149.4 C 233.9 149.6 233.8 149.6 233.7 149.7 Z" id="XMLID_167_" fill="#EEEEED"/><path d=" M 228.6 140.3 C 228.6 138.9 228.6 137.5 228.6 136 C 228.6 135.2 227.9 134.3 226.9 134.3 C 226 134.3 225.2 134.3 224.3 134.3 C 223.2 134.3 222.5 135 222.5 136.1 C 222.5 136.9 222.5 137.7 222.5 138.5 C 222.5 139.3 222.5 140.2 222.5 141 C 222.5 142 223.2 142.7 224.2 142.7 C 225.1 142.7 226 142.7 226.9 142.7 C 227.8 142.7 228.4 142.1 228.6 141.2 C 228.6 141 228.6 140.7 228.6 140.3 Z M 227.2 140.9 C 227.2 141.3 227.1 141.4 226.7 141.4 C 225.9 141.4 225.1 141.4 224.3 141.4 C 223.9 141.4 223.8 141.3 223.8 140.8 C 223.8 139.2 223.8 137.7 223.8 136.1 C 223.8 135.7 223.9 135.5 224.4 135.5 C 225.2 135.5 225.9 135.5 226.7 135.5 C 227.1 135.5 227.3 135.6 227.3 136 L 227.3 140.9 Z" id="XMLID_164_" fill="#EEEEED"/><path d=" M 238.2 148.3 C 238 148.3 237.9 148.3 237.7 148.2 C 237.6 148.1 237.4 148.1 237.6 147.9 C 237.6 147.9 237.6 147.8 237.6 147.8 C 237.4 147.7 237.3 147.5 237.2 147.3 C 238.5 146.4 239.8 145.6 241.1 144.7 C 241.7 144.3 242.4 143.8 243.2 143.7 C 244.3 143.5 245.3 143.6 246.1 144.5 C 246.9 145.4 247.1 146.5 246.7 147.7 C 246.4 148.6 245.8 149.3 245 149.9 C 243.6 150.9 242.2 152 240.7 153 C 240.3 152.7 240 152.5 239.8 152 C 239.8 151.8 240 151.8 240.1 151.7 C 241.5 150.7 242.9 149.7 244.2 148.7 C 244.7 148.3 245.1 147.8 245.3 147.2 C 245.5 146.4 245.2 145.4 244.4 145.2 C 243.9 145 243.5 145.1 243 145.2 C 242.6 145.3 242.4 145.5 242.3 145.5 C 241.6 146 240.2 146.9 238.3 148.2 C 238.4 148.2 238.3 148.2 238.2 148.3 Z" id="XMLID_163_" fill="#EEEEED"/><path d=" M 246.7 165.3 C 247.1 164.2 247.4 163.2 247.8 162.2 C 247.9 162 248 161.9 248.2 161.9 C 248.5 161.9 248.8 161.9 249.1 161.9 C 249.4 161.9 249.4 162 249.3 162.2 C 248.9 163.2 248.5 164.1 248.1 165.1 C 247.8 165.7 247.6 166.3 247.4 167 C 247.3 167.2 247.2 167.3 247 167.3 C 246.8 167.3 246.6 167.3 246.3 167.3 C 246.1 167.3 246 167.2 246 167.1 C 245.9 166.7 245.7 166.3 245.5 165.9 C 245.5 165.9 245.5 165.8 245.4 165.8 C 245.2 166.2 245.1 166.6 244.9 167 C 244.8 167.2 244.7 167.3 244.5 167.3 C 243.6 167.3 243.6 167.3 243.3 166.5 C 242.8 165.1 242.2 163.7 241.7 162.3 C 241.6 162 241.6 162 241.9 162 C 242.2 162 242.5 162 242.8 162 C 243 162 243.1 162.1 243.1 162.2 C 243.4 163.1 243.7 164.1 244 165 C 244 165.1 244.1 165.2 244.1 165.3 C 244.4 164.4 244.7 163.5 244.9 162.7 C 245.1 162 245.1 162 245.9 162 C 246 162 246.2 162 246.3 162 C 246.6 162 246.6 162 246.5 162.3 C 246.3 162.8 246.2 163.3 246 163.7 C 245.9 163.8 245.9 164 246 164.1 C 246.4 164.5 246.5 164.9 246.7 165.3 Z" id="XMLID_162_" fill="#EEEEED"/><path d=" M 228.1 161.9 C 226.6 161.9 225.3 163.1 225.3 164.7 C 225.3 166.2 226.5 167.4 228.1 167.4 C 229.6 167.4 230.8 166.2 230.8 164.7 C 230.9 163.1 229.6 161.8 228.1 161.9 Z M 228 166 C 227.2 166 226.7 165.4 226.7 164.6 C 226.7 163.8 227.3 163.2 228.1 163.2 C 228.8 163.2 229.4 163.9 229.4 164.6 C 229.4 165.5 228.9 166 228 166 Z" id="XMLID_159_" fill="#EEEEED"/><path d=" M 259.9 166.9 C 259.6 166.4 259.4 165.9 259.1 165.4 C 259 165.2 259 165.1 259.2 165 C 259.8 164.6 260 163.8 259.8 163.1 C 259.6 162.4 258.9 161.9 258.1 161.9 C 257.4 161.9 256.6 161.9 255.9 161.9 C 255.7 161.9 255.6 162 255.6 162.2 C 255.6 163 255.6 163.8 255.6 164.6 C 255.6 165.4 255.6 166.2 255.6 167 C 255.6 167.2 255.7 167.3 255.9 167.3 C 256.2 167.3 256.5 167.3 256.7 167.3 C 256.9 167.3 257 167.2 257 167 C 257 166.6 257 166.2 257 165.7 C 257 165.6 257 165.6 257.1 165.5 C 257.3 165.4 257.6 165.5 257.7 165.7 C 257.9 166.1 258.2 166.6 258.4 167 C 258.5 167.2 258.6 167.2 258.8 167.2 C 259.1 167.2 259.4 167.2 259.7 167.2 C 260 167.3 260 167.2 259.9 166.9 Z M 258.4 163.8 C 258.4 164.1 258.2 164.3 257.9 164.3 C 257.9 164.3 257.9 164.3 257.8 164.3 C 257.8 164.3 257.7 164.3 257.7 164.3 C 257.6 164.3 257.4 164.3 257.2 164.3 C 257.2 164.3 257.1 164.3 257.1 164.2 C 257.1 164.2 257.1 164.1 257.1 164.1 C 257.1 163.8 257.1 163.5 257.1 163.2 C 257.1 163.2 257.1 163.1 257.1 163.1 C 257.1 163.1 257.2 163.1 257.2 163.1 C 257.6 163.1 257.9 163.1 258 163.1 C 258.1 163.1 258.2 163.2 258.2 163.2 C 258.2 163.2 258.2 163.2 258.2 163.2 C 258.3 163.3 258.4 163.5 258.4 163.8 Z" id="XMLID_156_" fill="#EEEEED"/><path d=" M 261 164.6 C 261 163.8 261 163 261 162.2 C 261 162 261.1 161.9 261.3 161.9 C 262.4 161.9 263.5 161.9 264.6 161.9 C 264.8 161.9 264.9 162 264.9 162.2 C 264.9 162.4 264.9 162.6 264.9 162.8 C 264.9 163 264.8 163.1 264.6 163.1 C 264 163.1 263.3 163.1 262.7 163.1 C 262.5 163.1 262.5 163.1 262.5 163.3 C 262.5 164 262.5 164 263.1 164 C 263.5 164 263.8 164 264.2 164 C 264.4 164 264.5 164.1 264.5 164.3 C 264.5 164.5 264.5 164.7 264.5 164.9 C 264.5 165.1 264.4 165.2 264.2 165.2 C 263.7 165.2 263.2 165.2 262.8 165.2 C 262.6 165.2 262.6 165.3 262.6 165.4 C 262.6 166.1 262.6 166.1 263.3 166.1 C 263.8 166.1 264.4 166.1 264.9 166.1 C 265.1 166.1 265.2 166.2 265.2 166.4 C 265.2 166.6 265.2 166.9 265.2 167.1 C 265.2 167.3 265.1 167.3 265 167.3 C 263.8 167.3 262.7 167.3 261.5 167.3 C 261.3 167.3 261.3 167.2 261.3 167 C 261.1 166.2 261 165.4 261 164.6 Z" id="XMLID_155_" fill="#EEEEED"/><path d=" M 254.5 166.9 C 253.9 165.4 253.3 163.9 252.7 162.4 C 252.5 162 252.5 162 252.1 162 C 252 162 251.8 162 251.7 162 C 251.4 162 251.3 162.1 251.2 162.3 C 250.6 163.8 250.1 165.2 249.5 166.7 C 249.2 167.4 249.3 167.3 249.9 167.3 C 250.6 167.3 250.6 167.3 250.9 166.6 C 251 166.5 251 166.4 251.2 166.4 C 251.7 166.4 252.2 166.4 252.7 166.4 C 252.9 166.4 253 166.5 253 166.6 C 253.3 167.4 253.1 167.2 253.9 167.2 L 254.2 167.2 C 254.7 167.3 254.7 167.3 254.5 166.9 Z M 252.4 165.2 C 252.1 165.2 251.9 165.2 251.6 165.2 C 251.6 165.2 251.5 165.2 251.5 165.2 C 251.5 165.2 251.5 165.1 251.5 165.1 C 251.6 164.8 251.7 164.6 251.7 164.4 C 251.8 164.2 251.8 164 251.9 163.7 C 251.9 163.7 251.9 163.6 251.9 163.6 C 251.9 163.6 251.9 163.7 251.9 163.7 C 252.1 164.2 252.2 164.6 252.4 165.1 C 252.5 165.1 252.5 165.2 252.4 165.2 C 252.5 165.2 252.4 165.3 252.4 165.2 Z" id="XMLID_152_" fill="#EEEEED"/><path d=" M 222.4 161.8 C 223 161.8 223.6 162 224 162.4 C 224.2 162.6 224.2 162.7 224 162.9 C 223.9 163 223.7 163.2 223.6 163.3 C 223.5 163.5 223.3 163.5 223.2 163.3 C 223 163.1 222.7 162.9 222.4 162.9 C 222.2 162.9 222 162.9 221.9 163.2 C 221.8 163.5 222 163.6 222.2 163.7 C 222.6 163.9 223 164 223.4 164.2 C 223.9 164.4 224.4 164.8 224.4 165.5 C 224.4 166.4 224 167 223.1 167.3 C 222.1 167.6 220.9 167.3 220.3 166.5 C 220.2 166.4 220.2 166.3 220.3 166.2 C 220.5 166 220.7 165.9 220.8 165.7 C 220.9 165.6 221.1 165.6 221.2 165.7 C 221.4 165.9 221.7 166.1 222 166.2 C 222.2 166.3 222.4 166.3 222.6 166.2 C 222.9 166.1 223 165.7 222.7 165.5 C 222.5 165.4 222.4 165.3 222.2 165.3 C 221.7 165.1 221.3 165 220.9 164.6 C 220.1 163.9 220.3 162.7 221.2 162.2 C 221.7 161.9 222 161.8 222.4 161.8 Z" id="XMLID_151_" fill="#EEEEED"/><path d=" M 232.1 164.6 C 232.1 163.8 232.1 163 232.1 162.2 C 232.1 162 232.2 161.9 232.4 161.9 C 233.5 161.9 234.5 161.9 235.6 161.9 C 235.8 161.9 235.9 162 235.9 162.2 C 235.9 162.4 235.9 162.7 235.9 162.9 C 235.9 163.1 235.8 163.2 235.6 163.2 C 235 163.2 234.4 163.2 233.8 163.2 C 233.6 163.2 233.5 163.3 233.5 163.5 C 233.5 163.7 233.5 163.9 233.5 164.1 C 233.5 164.3 233.6 164.3 233.7 164.3 C 234.1 164.3 234.5 164.3 234.9 164.3 C 235.3 164.3 235.3 164.3 235.3 164.6 C 235.3 164.8 235.3 165 235.3 165.2 C 235.3 165.4 235.2 165.5 235 165.5 C 234.6 165.5 234.2 165.5 233.7 165.5 C 233.5 165.5 233.4 165.6 233.4 165.8 C 233.4 166.2 233.4 166.7 233.4 167.1 C 233.4 167.3 233.3 167.4 233.1 167.4 C 232.8 167.4 232.5 167.4 232.2 167.4 C 232 167.4 231.9 167.3 231.9 167.1 C 232.1 166.2 232.1 165.4 232.1 164.6 Z" id="XMLID_150_" fill="#EEEEED"/><path d=" M 238.8 161.9 C 239.4 161.9 240 161.9 240.6 161.9 C 240.9 161.9 240.9 161.9 240.9 162.2 C 240.9 162.4 240.9 162.6 240.9 162.8 C 240.9 163 240.8 163.2 240.6 163.1 C 240.3 163.1 240.1 163.1 239.8 163.1 C 239.6 163.1 239.5 163.1 239.5 163.4 C 239.5 164.5 239.5 165.7 239.5 166.8 C 239.5 167.2 239.5 167.2 239.1 167.2 C 238.9 167.2 238.6 167.2 238.4 167.2 C 238.2 167.2 238.1 167.1 238.1 166.9 C 238.1 165.7 238.1 164.6 238.1 163.4 C 238.1 163 238.2 163.1 237.8 163.1 C 237.5 163.1 237.3 163.1 237 163.1 C 236.8 163.1 236.7 163 236.7 162.8 C 236.7 162.6 236.7 162.4 236.7 162.2 C 236.7 162 236.8 161.9 237 161.9 C 237.6 161.9 238.2 161.9 238.8 161.9 Z" id="XMLID_149_" fill="#EEEEED"/><path d=" M 205.4 162.1 C 205.1 162.9 204.8 163.8 204.4 164.6 C 204.1 165.4 203.8 166.2 203.5 167.1 C 203.4 167.2 203.3 167.3 203.2 167.3 C 203 167.3 202.8 167.3 202.7 167.3 C 202.3 167.3 202.3 167.3 202.1 166.9 C 201.5 165.4 200.9 163.8 200.3 162.3 C 200.2 162 200.2 162 200.5 162 C 200.8 162 201.1 162 201.4 162 C 201.6 162 201.7 162.1 201.7 162.2 C 202 163.1 202.3 164.1 202.6 165 C 202.6 165.1 202.6 165.2 202.7 165.3 C 202.9 164.8 203.1 164.2 203.2 163.7 C 203.4 163.2 203.5 162.7 203.7 162.2 C 203.7 162.1 203.8 162 204 162 C 204.3 162 204.7 162 205 162 C 205.3 161.9 205.5 162 205.4 162.1 Z" id="XMLID_148_" fill="#EEEEED"/><path d=" M 213.8 164 C 213.6 163 212.9 162.4 211.9 162.1 C 211.2 161.9 210.5 162 209.9 162 C 209.1 162 209.2 161.8 209.2 162.7 C 209.2 164.2 209.2 165.6 209.2 167.1 C 209.2 167.3 209.3 167.3 209.4 167.3 C 210.1 167.3 210.8 167.3 211.5 167.3 C 212.1 167.3 212.7 167 213.1 166.5 C 213.8 165.8 214 164.9 213.8 164 Z M 211.1 165.9 C 211 165.9 211 165.9 210.9 165.9 C 210.9 165.9 210.8 165.9 210.8 165.9 C 210.7 165.9 210.7 165.8 210.7 165.8 C 210.7 165 210.7 164.3 210.7 163.5 C 210.7 163.5 210.7 163.4 210.7 163.4 C 210.7 163.4 210.8 163.3 210.8 163.3 C 210.9 163.3 210.9 163.3 211 163.3 C 211 163.3 211.1 163.3 211.3 163.3 C 211.9 163.5 212.3 164 212.3 164.5 C 212.3 164.5 212.3 164.6 212.3 164.8 C 212.2 165.2 211.9 165.5 211.9 165.6 C 211.6 165.9 211.2 165.9 211.1 165.9 Z" id="XMLID_145_" fill="#EEEEED"/><path d=" M 219.6 167 C 219.4 166.4 219.1 165.8 218.9 165.2 C 218.5 164.2 218.1 163.2 217.8 162.2 C 217.7 162 217.6 161.8 217.3 161.9 C 217.1 161.9 216.9 161.9 216.7 161.9 C 216.5 161.9 216.5 162 216.4 162.1 C 216.2 162.6 216 163.2 215.8 163.7 C 215.4 164.7 215 165.6 214.7 166.6 C 214.5 167.2 214.3 167.2 215.1 167.2 C 215.8 167.2 215.8 167.2 216.1 166.5 C 216.2 166.4 216.2 166.3 216.4 166.3 C 216.7 166.3 217.1 166.3 217.4 166.3 C 218.1 166.3 218.1 166.3 218.3 166.9 C 218.3 167 218.4 167.1 218.5 167.1 C 218.8 167.1 219.1 167.2 219.4 167.1 C 219.4 167.1 219.4 167.1 219.4 167.1 C 219.4 167.1 219.5 167.1 219.5 167.1 C 219.7 167.3 219.7 167.2 219.6 167 Z M 217.4 165.2 C 217.1 165.2 216.9 165.2 216.6 165.2 C 216.6 165.2 216.5 165.2 216.5 165.2 C 216.5 165.2 216.5 165.1 216.5 165.1 C 216.7 164.6 216.8 164.1 217 163.6 C 217.2 164.1 217.3 164.6 217.5 165.1 C 217.5 165.2 217.5 165.2 217.4 165.2 C 217.5 165.2 217.5 165.2 217.4 165.2 Z" id="XMLID_141_" fill="#EEEEED"/><path d=" M 219.4 167.3 C 219.4 167.3 219.3 167.3 219.3 167.3 C 219.4 167.3 219.4 167.3 219.4 167.3 Z" id="XMLID_138_" fill="#EEEEED"/><path d=" M 206.3 164.6 C 206.3 163.8 206.3 163.1 206.3 162.3 C 206.3 161.9 206.3 161.9 206.7 161.9 C 206.9 161.9 207.2 161.9 207.4 161.9 C 207.6 161.9 207.7 162 207.7 162.1 C 207.7 163.7 207.7 165.4 207.7 167 C 207.7 167.2 207.6 167.2 207.5 167.2 C 207.2 167.2 206.9 167.2 206.6 167.2 C 206.4 167.2 206.3 167.1 206.3 166.9 C 206.4 166.2 206.3 165.4 206.3 164.6 Z" id="XMLID_137_" fill="#EEEEED"/></g><g id="XMLID_97_"><g id="XMLID_115_"><text id="XMLID_134_" fill="#ECECEB" font-family="CenturyGothic" font-size="8.1962" transform="matrix(0.9699,0,0,1,208.996,63.5018)">H&amp;O SYSTEM</text><text id="XMLID_132_" fill="#ECECEB" font-family="CenturyGothic-Bold" font-size="4.2417" transform="matrix(0.8743,0,0,1,209.965,68.3847)">Sistema Integrado Escolar</text><g id="XMLID_117_"><g id="XMLID_122_"><path d=" M 253.2 40.9 C 252.3 40.4 251.4 40.1 250.4 40.1 C 249.4 40.1 248.5 40.4 247.6 40.9 C 246.7 41.4 246 42.1 245.6 42.9 C 245.1 43.8 244.9 44.7 244.9 45.8 C 244.9 47.4 245.4 48.7 246.5 49.8 C 247.6 50.9 248.9 51.4 250.4 51.4 C 251.4 51.4 252.4 51.2 253.2 50.7 C 254.1 50.2 254.7 49.5 255.2 48.7 C 255.7 47.8 255.9 46.9 255.9 45.8 C 255.9 44.8 255.7 43.8 255.2 43 C 254.8 42.1 254.1 41.4 253.2 40.9 Z" id="XMLID_131_" fill="#E2E2E1"/><path d=" M 259.3 32.5 L 239.8 32.5 L 239.8 49.7 C 239.8 49.7 239.8 50 239.6 50.2 C 239.5 50.3 239.3 50.3 239.2 50.3 C 234.3 50.3 229.5 50.3 224.6 50.3 L 224.6 53.9 C 224.6 54.6 225.2 55.1 225.8 55.1 L 254.1 55.1 C 257.3 55.1 260 52.5 260 49.2 L 260 33.2 C 260 32.8 259.7 32.5 259.3 32.5 Z M 255.4 50.7 C 254.1 52 252.4 52.7 250.5 52.7 C 248.6 52.7 246.9 52 245.6 50.7 C 244.3 49.4 243.6 47.8 243.6 45.9 C 243.6 44.6 243.9 43.5 244.5 42.4 C 245.1 41.3 245.9 40.5 247 39.9 C 248.1 39.3 249.2 39 250.4 39 C 252.4 39 254.1 39.7 255.4 41 C 256.7 42.3 257.4 44 257.4 45.9 C 257.4 47.7 256.7 49.3 255.4 50.7 Z M 225 32.9 C 225.4 32.5 226 32.5 226.1 32.5 C 230.7 32.5 235.2 32.5 239.8 32.5 L 239.8 28 C 239.8 27.9 239.8 27.9 239.7 27.9 L 207.9 27.9 C 206 27.9 204.5 29.4 204.5 31.3 L 204.5 50.1 C 204.5 50.2 204.6 50.3 204.7 50.3 L 224.6 50.3 C 224.6 44.8 224.6 39.3 224.6 33.8 C 224.6 33.8 224.6 33.3 225 32.9 Z M 219.7 45.8 L 218.4 45.8 L 218.4 39.7 L 212 39.7 L 212 45.8 L 210.7 45.8 L 210.7 33.2 L 212 33.2 L 212 38.5 L 218.4 38.5 L 218.4 33.2 L 219.7 33.2 L 219.7 45.8 Z" id="XMLID_124_" fill="#E2E2E1"/></g></g></g><path d=" M 226.1 32.5 C 226 32.5 225.5 32.4 225 32.9 C 224.6 33.3 224.6 33.9 224.6 33.9 C 224.6 39.4 224.6 44.9 224.6 50.4 C 229.5 50.4 234.3 50.4 239.2 50.4 C 239.3 50.4 239.4 50.4 239.6 50.3 C 239.8 50.1 239.8 49.8 239.8 49.8 L 239.8 32.5 C 235.3 32.5 230.7 32.5 226.1 32.5 Z M 236 46.3 L 234.6 44.9 C 233.7 45.6 233 46 232.5 46.2 C 232 46.4 231.4 46.5 230.8 46.5 C 230 46.5 229.3 46.3 228.8 45.8 C 228.3 45.4 228.1 44.8 228.1 44.1 C 228.1 43.6 228.3 43.1 228.6 42.6 C 228.9 42.1 229.6 41.5 230.6 40.7 C 230 40 229.7 39.5 229.5 39.2 C 229.3 38.9 229.3 38.6 229.3 38.3 C 229.3 37.8 229.5 37.4 229.9 37.1 C 230.4 36.7 231 36.5 231.6 36.5 C 232 36.5 232.4 36.6 232.8 36.8 C 233.2 37 233.4 37.2 233.6 37.5 C 233.8 37.8 233.9 38.1 233.9 38.4 C 233.9 38.7 233.8 39.1 233.5 39.5 C 233.3 39.9 232.8 40.4 232 41 L 233.6 42.6 L 234.6 43.6 C 235.2 43.2 235.6 42.9 235.9 42.6 L 236.6 43.3 C 236.1 43.7 235.7 44 235.3 44.3 C 235.6 44.6 236 44.9 236.4 45.3 C 236.8 45.6 237.1 46 237.3 46.3 L 236 46.3 Z" id="XMLID_100_" fill="#FFFFFF"/><path d=" M 232.8 38.5 C 232.8 38.7 232.7 38.9 232.5 39.2 C 232.2 39.6 231.9 39.9 231.3 40.3 C 230.9 39.8 230.5 39.4 230.3 39 C 230.2 38.8 230.2 38.7 230.2 38.5 C 230.2 38.3 230.3 38.1 230.6 37.9 C 230.8 37.7 231.1 37.6 231.5 37.6 C 231.9 37.6 232.2 37.7 232.4 37.9 C 232.7 38 232.8 38.2 232.8 38.5 Z" id="XMLID_99_" fill="#ECECEB"/><path d=" M 233.9 44.2 C 233.2 44.8 232.5 45.2 232 45.4 C 231.6 45.5 231.3 45.6 230.9 45.6 C 230.4 45.6 230 45.5 229.7 45.2 C 229.4 44.9 229.2 44.6 229.2 44.2 C 229.2 43.9 229.3 43.5 229.6 43.1 C 229.9 42.7 230.5 42.2 231.4 41.6 C 231.8 42 232.1 42.3 232.4 42.6 L 233.9 44.2 Z" id="XMLID_98_" fill="#ECECEB"/></g><g id="XMLID_74_"><g><g id="XMLID_82_"><path d=" M 156.6 76.6 L 151.6 85.3 L 136.5 85.3 L 131.4 76.6 Z" fill="#1A1A1B"/></g><g id="XMLID_81_"><path d=" M 117.3 99.3 L 129.9 77.4 L 134.9 86.2 L 127.4 99.3 Z" fill="#1A1A1B"/></g><g id="XMLID_80_"><path d=" M 170.7 99.3 L 158.1 77.4 L 153.1 86.2 L 160.6 99.3 Z" fill="#1A1A1B"/></g><g id="XMLID_79_"><path d=" M 129.9 122.8 L 117.3 101 L 127.4 101 L 134.9 114.1 Z" fill="#1A1A1B"/></g><g id="XMLID_77_"><path d=" M 143.5 99.3 L 137.9 108.9 L 133.3 101.2 L 138.9 91.6 L 150.1 91.6 L 154.6 99.3 Z" fill="#1A1A1B"/></g><g id="XMLID_76_"><path d=" M 139.5 109.8 L 165.7 109.8 L 165.7 109.8 L 170.7 101 L 160.6 101 L 160.6 101 L 144.5 101 Z" fill="#1A1A1B"/></g></g></g><g id="XMLID_68_"><linearGradient x1="219.383" y1="244.598" x2="227.836" y2="255.774" gradientUnits="userSpaceOnUse" id="XMLID_335_"><stop offset="0" stop-color="#525252"/><stop offset="0.0867333" stop-color="#6E6E6E"/><stop offset="0.2379" stop-color="#9A9A9A"/><stop offset="0.3909" stop-color="#BFBFBF"/><stop offset="0.5437" stop-color="#DBDBDB"/><stop offset="0.6962" stop-color="#EFEFEF"/><stop offset="0.8484" stop-color="#FBFBFB"/><stop offset="1" stop-color="#FFFFFF"/></linearGradient><path d=" M 223.1 259.2 L 215.8 249.7 L 214.8 247.2 L 223.8 240.8 L 232.4 252 Z" id="XMLID_73_" fill="url(#XMLID_335_)"/><path d=" M 252.4 237.8 L 252.4 232.5 L 223.4 232.5 C 223.4 232.5 213.5 233.3 213.5 242.9 C 213.5 242.9 213.2 245.9 215.9 249.6 C 215.9 249.6 215.2 243.7 226.2 243.7 C 237.2 243.7 244.3 243.7 244.3 243.7 L 252.4 237.8 Z" id="XMLID_72_" fill="#FFFFFF"/><g id="XMLID_69_"><linearGradient x1="-773.184" y1="-5593.75" x2="-764.73" y2="-5582.57" gradientUnits="userSpaceOnUse" id="XMLID_336_" gradientTransform="matrix(-1,0,0,-1,-527.673,-5334.31)"><stop offset="0" stop-color="#525252"/><stop offset="0.0867333" stop-color="#6E6E6E"/><stop offset="0.2379" stop-color="#9A9A9A"/><stop offset="0.3909" stop-color="#BFBFBF"/><stop offset="0.5437" stop-color="#DBDBDB"/><stop offset="0.6962" stop-color="#EFEFEF"/><stop offset="0.8484" stop-color="#FBFBFB"/><stop offset="1" stop-color="#FFFFFF"/></linearGradient><path d=" M 241.8 244.8 L 249.1 254.3 L 250.1 256.8 L 241.1 263.2 L 232.4 252 Z" id="XMLID_71_" fill="url(#XMLID_336_)"/><path d=" M 212.5 266.2 L 212.5 271.5 L 241.5 271.5 C 241.5 271.5 251.4 270.7 251.4 261.1 C 251.4 261.1 251.7 258.1 249 254.4 C 249 254.4 249.7 260.3 238.7 260.3 C 227.7 260.3 220.6 260.3 220.6 260.3 L 212.5 266.2 Z" id="XMLID_70_" fill="#FFFFFF"/></g></g><g id="XMLID_52_"><rect x="21.2" y="141.9" width="65.3" height="17.6" id="XMLID_67_" fill="none"/><text id="XMLID_66_" fill="#EEEEED" font-family="Sansation-Bold" font-size="24.0143" transform="matrix(1,0,0,1,21.2271,158.628)">facele</text><path d=" M 78 139 L 88.2 138.3 L 86.4 146.5 Z" id="XMLID_65_" fill="#FFFFFF"/><path d=" M 77 139.8 L 78.7 139.6 L 86.4 146.5 Z" id="XMLID_63_" fill="#E5E4E4"/><path d=" M 86.4 146.5 L 88.2 138.3 L 96.3 146.3 Z" id="XMLID_61_" fill="#DDDCDC"/><path d=" M 98 141.3 L 92.9 143 L 96.3 146.3 Z" id="XMLID_60_" fill="#FFFFFF"/><path d=" M 97.2 143.6 L 98 141.3 L 100.2 142.7 Z" id="XMLID_58_" fill="#E8E7E9"/><path d=" M 88.2 151.8 L 86.4 146.5 L 96.3 146.3 Z" id="XMLID_56_" fill="#A7A6A7"/><path d=" M 88.6 153.1 L 86.4 146.5 L 83.6 158.7 Z" id="XMLID_55_" fill="#FFFFFF"/><rect x="22.5" y="160.2" width="59.6" height="2.3" id="XMLID_54_" fill="none"/><text id="XMLID_53_" fill="#EEEEED" font-family="Arial-BoldMT" font-size="2.6416" transform="matrix(1,0,0,1,22.5357,162.124)">DOCUMENTOS TRIBUTARIOS ELECTRNICOS</text></g></g><g id="XMLID_1_"><path d=" M 354.2 200.5 C 349.7 197 345.3 193.6 340.8 190.1 C 340.6 189.9 340.5 190 340.4 190.2 C 337 194.6 333.5 199.1 330.1 203.5 C 330 203.7 329.9 203.7 330.1 203.9 C 334.6 207.3 339 210.8 343.5 214.2 C 343.6 214.3 343.6 214.3 343.7 214.3 C 343.8 214.3 343.9 214.2 343.9 214.1 C 347.4 209.7 350.8 205.2 354.3 200.8 C 354.4 200.7 354.4 200.6 354.2 200.5 Z M 344.9 202.1 C 344.2 203.1 343.4 204 342.7 205 C 342.5 205.2 342.5 205.2 342.3 205 C 341.3 204.2 340.4 203.5 339.4 202.8 C 339.2 202.7 339.2 202.6 339.3 202.4 C 340.1 201.4 340.8 200.4 341.6 199.5 C 341.7 199.3 341.8 199.4 342 199.5 C 343 200.3 344 201 344.9 201.8 C 345 201.8 345.1 201.9 345.1 202 C 345 201.9 345 202 344.9 202.1 Z" id="XMLID_45_" fill="#EEEEED"/><path d=" M 297.2 200.5 C 297.2 203.2 297.2 205.9 297.2 208.6 C 297.2 209.4 297.2 209.3 296.5 209.4 C 296.2 209.4 296.1 209.3 296.1 209 C 296.1 204.3 296.1 199.6 296.1 194.9 C 296.1 194.6 296.2 194.6 296.4 194.6 C 297.2 194.6 297.2 194.6 297.2 195.3 C 297.2 196.1 297.2 196.9 297.2 197.8 C 297.2 198 297.2 198.2 297.3 198.3 C 297.9 199.3 298.5 200.3 299.1 201.3 C 299.2 201.2 299.2 201.1 299.2 201 C 299.2 199 299.2 196.9 299.2 194.9 C 299.2 194.6 299.2 194.5 299.6 194.5 C 300.4 194.5 300.4 194.5 300.4 195.3 C 300.4 199.8 300.4 204.4 300.4 208.9 C 300.4 209.2 300.3 209.3 300 209.3 C 299.3 209.3 299.3 209.3 299.3 208.6 C 299.3 207.1 299.3 205.6 299.3 204.1 C 299.3 203.9 299.2 203.7 299.1 203.5 C 298.5 202.6 298 201.7 297.5 200.7 C 297.4 200.7 297.3 200.6 297.2 200.5 C 297.2 200.5 297.2 200.5 297.2 200.5 Z" id="XMLID_44_" fill="#EEEEED"/><path d=" M 319 196.8 C 319 195.6 318.1 194.7 316.9 194.7 C 316.3 194.7 315.7 194.7 315.1 194.7 C 314.8 194.7 314.7 194.8 314.7 195.1 C 314.7 197.4 314.7 199.8 314.7 202.1 C 314.7 204.5 314.7 206.8 314.7 209.2 C 314.7 209.5 314.8 209.5 315 209.5 C 315.6 209.5 316.2 209.5 316.8 209.5 C 318.1 209.5 319 208.6 319 207.3 C 319 203.7 319 200.2 319 196.8 Z M 317.8 207.3 C 317.8 207.8 317.4 208.3 316.9 208.3 C 316.5 208.3 316.1 208.4 315.9 208.2 C 315.7 208 315.8 207.5 315.8 207.2 C 315.8 205.4 315.8 203.7 315.8 201.9 C 315.8 199.9 315.8 198 315.8 196 C 315.8 195.7 315.9 195.6 316.1 195.7 C 316.3 195.7 316.6 195.7 316.9 195.7 C 317.5 195.7 317.9 196.2 317.9 196.7 C 317.8 200.3 317.8 203.8 317.8 207.3 Z" id="XMLID_39_" fill="#EEEEED"/><path d=" M 312.4 202.7 C 312.4 200.7 312.4 198.6 312.4 196.6 C 312.4 194.9 310.9 194.1 309.5 194.5 C 308.6 194.8 308.1 195.6 308.1 196.6 C 308.1 200.6 308.1 204.7 308.1 208.7 C 308.1 209.3 308.1 209.3 308.7 209.4 C 309 209.4 309.1 209.3 309.1 209 C 309.1 207.3 309.1 205.7 309.1 204 C 309.1 203.7 309.1 203.6 309.4 203.6 C 309.9 203.6 310.4 203.6 310.8 203.6 C 311.1 203.6 311.1 203.7 311.1 203.9 C 311.1 205.5 311.1 207 311.1 208.6 C 311.1 209.4 311.1 209.4 311.9 209.4 C 312.2 209.4 312.3 209.3 312.3 209 C 312.4 206.9 312.4 204.8 312.4 202.7 Z M 310.9 202.5 C 310.4 202.5 310 202.5 309.5 202.5 C 309.2 202.5 309.1 202.4 309.2 202.1 C 309.2 201.2 309.2 200.3 309.2 199.4 C 309.2 198.5 309.2 197.6 309.2 196.7 C 309.2 196.4 309.3 196.2 309.4 196 C 309.7 195.6 310.1 195.4 310.5 195.5 C 310.9 195.6 311.2 196.1 311.3 196.5 C 311.3 196.7 311.3 197 311.3 197.2 C 311.3 198.9 311.3 200.5 311.3 202.2 C 311.3 202.4 311.2 202.5 310.9 202.5 Z" id="XMLID_36_" fill="#EEEEED"/><path d=" M 359.1 201 C 359.5 201.4 359.9 201.8 360.3 202.2 C 360.5 202.3 360.5 202.4 360.3 202.6 C 358.7 204.1 357.2 205.5 355.6 207 C 352.2 210.2 348.8 213.4 345.4 216.6 C 344.2 217.7 343 218.9 341.8 220 C 341.7 220.1 341.6 220.3 341.4 220.1 C 341.2 219.9 341.4 219.8 341.5 219.7 C 344.1 216.9 346.7 214.1 349.4 211.3 C 352.5 208 355.6 204.7 358.7 201.4 C 358.8 201.3 358.9 201.1 359.1 201 Z" id="XMLID_34_" fill="#EEEEED"/><path d=" M 324.7 203.3 C 324.6 203.2 324.5 203.2 324.5 203.1 C 324.4 203 324.6 202.9 324.6 202.9 C 325.4 202.1 326.1 201.3 326.9 200.4 C 331.2 195.8 335.5 191.2 339.9 186.6 C 340.6 185.9 341.3 185.1 342 184.4 C 342.1 184.2 342.2 184.2 342.4 184.4 C 342.7 184.8 343.1 185.1 343.5 185.5 C 343.6 185.6 343.6 185.7 343.5 185.8 C 342.7 186.5 341.9 187.3 341.2 188 C 341.2 188 341.1 188.1 341 188.1 C 340.9 188.1 340.8 188 340.8 188 C 340.7 187.9 336.2 192.2 325.1 203.2 C 324.9 203.1 324.8 203.2 324.7 203.3 Z" id="XMLID_33_" fill="#EEEEED"/><path d=" M 287 197.9 C 286.8 198.6 287.2 199.3 287.6 200.1 C 288.4 201.4 289.2 202.7 290 204 C 290.1 204.2 290.2 204.3 290.2 204.5 C 290.2 205.5 290.2 206.6 290.2 207.6 C 290.2 208.7 289.4 209.6 288.3 209.7 C 287.3 209.8 286.2 209.1 286 208.1 C 285.9 207.4 285.9 206.8 286 206.1 C 286 205.8 286.5 206 286.8 206 C 287 206 287 206 287 206.2 C 287 206.6 287 207.1 287 207.5 C 287 208.1 287.5 208.6 288 208.6 C 288.6 208.6 289 208.1 289 207.5 C 289 206.7 289 205.9 289 205 C 289 204.8 289 204.7 288.9 204.5 C 287.9 202.9 287 201.3 286 199.8 C 285.9 199.6 285.8 199.4 285.8 199.2 C 285.8 198.3 285.8 197.5 285.8 196.6 C 285.8 195.4 286.6 194.6 287.8 194.6 C 289 194.6 289.9 195.4 290 196.5 C 290 197 290 197.5 290 198.1 C 290 198.1 290 198.2 290 198.2 C 289.8 198.5 289.4 198.3 289.1 198.3 C 288.9 198.3 288.9 198.3 288.9 198.1 C 288.9 197.7 288.9 197.3 288.9 196.8 C 288.9 196.2 288.4 195.7 287.9 195.7 C 287.4 195.7 286.8 196.2 286.8 196.8 C 287 197 287 197.3 287 197.9 Z" id="XMLID_32_" fill="#EEEEED"/><path d=" M 303.7 202.6 C 303.7 200.4 303.7 198.3 303.7 196.1 C 303.7 195.8 303.6 195.7 303.3 195.7 C 303 195.7 302.7 195.7 302.4 195.7 C 302.3 195.7 302.2 195.7 302.2 195.6 C 302.2 195.3 302.2 195.1 302.2 194.8 C 302.2 194.7 302.3 194.7 302.4 194.7 C 303.7 194.7 305 194.7 306.2 194.7 C 306.4 194.7 306.4 194.8 306.4 194.9 C 306.5 195.7 306.5 195.7 305.6 195.7 C 304.8 195.7 304.8 195.7 304.8 196.5 C 304.8 200.7 304.8 204.8 304.8 209 C 304.8 209.4 304.7 209.5 304.3 209.5 C 303.6 209.5 303.6 209.5 303.6 208.8 C 303.7 206.6 303.7 204.6 303.7 202.6 Z" id="XMLID_31_" fill="#EEEEED"/><path d=" M 292.5 202 C 292.5 199.7 292.5 197.3 292.5 195 C 292.5 194.7 292.6 194.6 292.9 194.6 C 293.6 194.6 293.6 194.6 293.6 195.3 C 293.6 199.8 293.6 204.4 293.6 208.9 C 293.6 209.3 293.5 209.4 293.2 209.4 C 292.6 209.4 292.6 209.4 292.6 208.7 C 292.5 206.5 292.5 204.2 292.5 202 Z" id="XMLID_25_" fill="#EEEEED"/><path d=" M 351.8 206.8 C 353.4 204.8 355 202.7 356.6 200.7 C 356.8 200.5 356.8 200.4 356.5 200.2 C 356.3 200.1 356.4 200 356.5 199.9 C 356.7 199.7 357 199.4 357.2 199.2 C 357.7 199.7 358.1 200.1 358.6 200.6 C 356.3 202.7 354.1 204.8 351.8 206.8 C 351.8 206.8 351.8 206.8 351.8 206.8 Z" id="XMLID_22_" fill="#EEEEED"/><path d=" M 345.4 187.4 C 345.3 187.5 345.3 187.5 345.3 187.6 C 344.6 188.2 343.9 188.9 343.2 189.5 C 343 189.6 342.9 189.7 342.8 189.5 C 342.5 189.2 342.1 189 341.8 188.7 C 341.6 188.6 341.6 188.5 341.8 188.4 C 342.5 187.7 343.2 186.9 343.9 186.2 C 344 186 344.1 186.1 344.3 186.2 C 344.6 186.6 345 186.9 345.4 187.3 C 345.3 187.3 345.4 187.4 345.4 187.4 Z" id="XMLID_19_" fill="#EEEEED"/><path d=" M 347.3 189.3 C 346.6 190 345.9 190.6 345.2 191.2 C 345.1 191.3 345 191.3 344.9 191.2 C 344.5 190.9 344.2 190.6 343.8 190.3 C 343.6 190.2 343.7 190.1 343.8 190 C 344.4 189.3 345.1 188.6 345.7 188 C 345.8 187.9 345.9 187.9 346 188 C 346.5 188.4 346.9 188.9 347.3 189.3 Z" id="XMLID_18_" fill="#EEEEED"/><path d=" M 347.8 189.7 C 348.2 190.1 348.6 190.6 349.1 191 C 349.2 191.1 349.2 191.2 349.1 191.3 C 348.5 191.8 348 192.3 347.4 192.9 C 347.3 193 347.2 193 347.1 192.9 C 346.7 192.6 346.4 192.3 346 192 C 345.9 191.9 345.8 191.8 346 191.7 C 346.6 191.1 347.2 190.4 347.8 189.7 Z" id="XMLID_17_" fill="#EEEEED"/><path d=" M 351 193 C 351 193.1 350.9 193.1 350.9 193.2 C 350.4 193.6 350 194.1 349.5 194.5 C 349.4 194.6 349.3 194.6 349.2 194.5 C 348.8 194.2 348.4 193.9 348 193.6 C 347.9 193.5 347.9 193.4 348 193.3 C 348.5 192.8 349 192.2 349.5 191.7 C 349.6 191.6 349.7 191.6 349.8 191.7 C 350.2 192.1 350.6 192.5 351 192.9 C 351 193 351 193 351 193 Z" id="XMLID_16_" fill="#EEEEED"/><path d=" M 351.5 196.3 C 351.4 196.3 351.4 196.2 351.3 196.2 C 350.9 195.9 350.5 195.6 350.1 195.3 C 350 195.2 350 195.1 350.1 195 C 350.5 194.6 350.9 194.1 351.3 193.7 C 351.4 193.5 351.5 193.6 351.6 193.7 C 352 194.1 352.3 194.4 352.7 194.8 C 352.8 194.9 352.9 195 352.7 195.1 C 352.3 195.5 351.9 195.9 351.5 196.2 C 351.6 196.2 351.5 196.2 351.5 196.3 Z" id="XMLID_15_" fill="#EEEEED"/><path d=" M 353.3 195.3 C 353.4 195.4 353.5 195.4 353.5 195.5 C 353.9 195.9 354.2 196.2 354.6 196.6 C 354.7 196.7 354.7 196.8 354.6 196.9 C 354.3 197.2 354 197.5 353.7 197.8 C 353.6 197.9 353.5 197.9 353.4 197.8 C 353 197.5 352.6 197.2 352.2 196.9 C 352.1 196.8 352 196.7 352.2 196.6 C 352.5 196.3 352.9 195.9 353.2 195.5 C 353.3 195.5 353.3 195.4 353.3 195.3 Z" id="XMLID_12_" fill="#EEEEED"/><path d=" M 356.7 198.7 C 356.6 198.8 356.6 198.8 356.6 198.9 C 356.3 199.1 356.1 199.5 355.8 199.6 C 355.5 199.6 355.2 199.2 354.9 199 C 354.7 198.8 354.3 198.7 354.3 198.5 C 354.3 198.3 354.6 198.1 354.8 197.9 C 355.3 197.4 355.3 197.4 355.8 197.9 C 356 198.1 356.3 198.4 356.5 198.6 C 356.6 198.6 356.6 198.6 356.7 198.7 Z" id="XMLID_11_" fill="#EEEEED"/><path d=" M 342.5 215.7 C 341.6 216.5 340.7 217.4 339.9 218.2 C 339.8 218.3 339.7 218.3 339.6 218.2 C 339.5 218.1 339.5 218 339.6 217.9 C 340.4 217.1 341.1 216.3 341.9 215.5 C 342 215.4 342.1 215.4 342.2 215.5 C 342.3 215.5 342.4 215.6 342.5 215.7 Z" id="XMLID_10_" fill="#EEEEED"/><path d=" M 337.7 216.4 C 337.7 216.4 337.6 216.3 337.6 216.2 C 337.5 216.1 337.6 216.1 337.7 216 C 338.4 215.3 339.1 214.5 339.8 213.8 C 340.1 213.5 340.2 213.8 340.3 213.9 C 340.5 214 340.3 214.1 340.2 214.2 C 339.5 214.9 338.8 215.5 338.1 216.2 C 338 216.3 337.9 216.3 337.7 216.4 Z" id="XMLID_9_" fill="#EEEEED"/><path d=" M 338.3 212.3 C 337.6 213 336.9 213.7 336.2 214.3 C 336.1 214.4 336 214.4 335.9 214.3 C 335.8 214.2 335.8 214.1 335.9 214 C 336.5 213.4 337.1 212.8 337.7 212.1 C 337.9 211.9 338 212.3 338.3 212.3 Z" id="XMLID_7_" fill="#EEEEED"/><path d=" M 336.1 210.7 C 336 210.8 336 210.8 336 210.9 C 335.4 211.4 334.8 212 334.3 212.5 C 334.2 212.6 334.1 212.6 334 212.5 C 333.9 212.4 333.9 212.3 334 212.2 C 334.5 211.6 335.1 211.1 335.6 210.5 C 335.7 210.4 335.7 210.4 335.8 210.4 C 335.9 210.5 336 210.6 336.1 210.7 Z" id="XMLID_6_" fill="#EEEEED"/><path d=" M 334 209.1 C 333.4 209.7 332.8 210.2 332.3 210.7 C 332.2 210.8 332.1 210.7 332.1 210.7 C 332 210.6 331.9 210.6 332 210.5 C 332.5 210 333 209.4 333.5 209 C 333.7 208.7 333.8 209 334 209.1 Z" id="XMLID_5_" fill="#EEEEED"/><path d=" M 328.8 202.5 C 327.7 203.9 326.9 204.8 326.8 205 C 326.8 205 326.7 205.1 326.6 205.1 C 326.6 205.1 326.5 205.1 326.4 205 C 326.3 204.8 326.4 204.8 326.4 204.7 C 327.2 203.9 328 203.1 328.8 202.5 C 328.8 202.4 328.8 202.4 328.8 202.5 Z" id="XMLID_4_" fill="#EEEEED"/><path d=" M 330.3 208.9 C 330.3 208.8 330 208.7 330.2 208.5 C 330.6 208.1 331 207.6 331.4 207.2 C 331.6 207 331.7 207.2 331.8 207.3 C 331.9 207.4 331.9 207.5 331.8 207.5 C 331.4 207.9 331 208.3 330.5 208.7 C 330.4 208.8 330.4 208.8 330.3 208.9 Z" id="XMLID_3_" fill="#EEEEED"/><path d=" M 329.7 205.8 C 329.7 205.9 329.6 205.9 329.6 205.9 C 329.3 206.2 328.9 206.5 328.6 206.9 C 328.5 207 328.4 207 328.3 206.9 C 328.2 206.8 328.2 206.7 328.3 206.6 C 328.6 206.3 328.9 205.9 329.2 205.6 C 329.3 205.5 329.3 205.5 329.4 205.5 C 329.6 205.6 329.7 205.7 329.7 205.8 Z" id="XMLID_2_" fill="#EEEEED"/></g></g></svg>